<?xml version="1.0" encoding="utf-8"?>
<!-- Generator: Adobe Illustrator 18.0.0, SVG Export Plug-In . SVG Version: 6.00 Build 0)  -->
<!DOCTYPE svg PUBLIC "-//W3C//DTD SVG 1.1//EN" "http://www.w3.org/Graphics/SVG/1.1/DTD/svg11.dtd">
<svg version="1.1" id="Layer_1" xmlns="http://www.w3.org/2000/svg" xmlns:xlink="http://www.w3.org/1999/xlink" x="0px" y="0px"
	 width="1400px" height="980px" viewBox="0 0 1400 980" enable-background="new 0 0 1400 980" xml:space="preserve">
<g>
	<defs>
		<rect id="SVGID_1_" width="1400" height="980"/>
	</defs>
	<clipPath id="SVGID_2_">
		<use xlink:href="#SVGID_1_"  overflow="visible"/>
	</clipPath>
	<linearGradient id="SVGID_3_" gradientUnits="userSpaceOnUse" x1="700" y1="-32.3322" x2="700" y2="1008.7708">
		<stop  offset="0" style="stop-color:#008086"/>
		<stop  offset="0.2269" style="stop-color:#087781"/>
		<stop  offset="0.6024" style="stop-color:#1C5E74"/>
		<stop  offset="1" style="stop-color:#383C62"/>
	</linearGradient>
	<rect clip-path="url(#SVGID_2_)" fill="url(#SVGID_3_)" width="1400" height="980"/>
	<g clip-path="url(#SVGID_2_)">
		<path fill="#065F65" d="M723.7,36.7c-30.1,0-93.2-13.2-111,6.2c-8.9,9.6-16.9,38.6-20.2,50.9c-5,18.1-5.4,31-0.8,51
			c6.2,26.8,22.6,85.2,0,104.9c-20.4,17.7-28.3-2.2-29.9,33.1c-0.9,20,7.6,38.5,6.5,59.6c21.3-1.9,59.2,6.3,76.7,16.2
			c29.2,16.5,24.8,45.5,40,68.1c23.7,35.3,33.7-13.4,44-38.8c11.7-28.9,24.1-51.4,21.4-83.6c-12-0.7-23.3-2.4-35.1-3.9
			c0.7-16.6-3.9-49.8-16.1-58.9c-11.9-8.8-55.6-5.8-70.9-7.1c-1-2.8-2.5-12.9-2.3-15.4c17.3-4.6,70.5-1.6,82.3-14.7
			c13.6-15.1-0.1-65.6,1.1-85.9C741.7,109.3,722.8,62.3,723.7,36.7z"/>
		<path fill="#065151" d="M728.9,387.7c11.7-28.9,24.1-51.4,21.4-83.6c-12-0.7-23.3-2.4-35.1-3.9c0.7-16.6-3.9-49.8-16.1-58.9
			c-11.9-8.8-55.6-5.8-70.9-7.1c-1-2.8-2.5-12.9-2.3-15.4c17.3-4.6,70.5-1.6,82.3-14.7c13.6-15.1-0.1-65.6,1.1-85.9
			c32.4-8.9,13.6-56,14.5-81.5c-20.5,0-56.3-6.1-82.6-3.9c-16.7,42.7,0.9,85.2-9.7,127.1c-5.8,22.8-11.9,40.9-15.7,65.8
			c-3.6,23.5-15,33.3-23.2,54.1c-17.9,44.8,50.2,43.4,77.9,65.2c21.4,16.9,20.7,55.2,22.1,90.5C710.9,451.1,719.7,410.3,728.9,387.7
			z"/>
		<path fill="#064947" d="M664.2,100.2c-1.7,25.9,29.8,72.5-9,84c-1.7,12.4-0.1,21.8,0.6,31.4c21-1.4,44.8-3.3,52.3-11.5
			c13.6-15.1-0.1-65.6,1.1-85.9c32.4-8.9,13.6-56,14.5-81.5c-10.3,0-24.4-1.5-39.3-2.8C681.5,56.8,690.7,91.1,664.2,100.2z"/>
		<path fill="#064947" d="M750.3,304.2c-12-0.7-23.3-2.4-35.1-3.9c0.7-16.6-3.9-49.8-16.1-58.9c-7.3-5.4-26.6-6.4-43.9-6.6
			c-0.3,1.7-0.7,3.3-1.2,5.1c-6.2,22.7-18.8,34.7,18.2,37.3c11,13.6,8.2,34.7,18.5,47.6c11.1,13.9,21.9,12.2,38.8,17.9
			c3.8,1.3,8.9,4.1,14.5,7.4C748.8,335.9,751.7,321.4,750.3,304.2z"/>
	</g>
	<g clip-path="url(#SVGID_2_)">
		<path fill="#065F65" d="M984.3,494.4c-30.1,0-93.2-13.2-111,6.2c-8.9,9.6-16.9,38.6-20.2,50.9c-5,18.1-5.4,31-0.8,51
			c6.2,26.8,22.6,85.2,0,104.9c-20.4,17.7-28.3-2.2-29.9,33.1c-0.9,20,7.6,38.5,6.5,59.6c21.3-1.9,59.2,6.3,76.7,16.2
			c29.2,16.5,24.8,45.5,40,68.1c23.7,35.3,33.7-13.4,44-38.8c11.7-28.9,24.1-51.4,21.4-83.6c-12-0.7-23.3-2.4-35.1-3.9
			c0.7-16.6-3.9-49.8-16.1-58.9c-11.9-8.8-55.6-5.8-70.9-7.1c-1-2.8-2.5-12.9-2.3-15.4c17.3-4.6,70.5-1.6,82.3-14.7
			c13.6-15.1-0.1-65.6,1.1-85.9C1002.2,567,983.4,519.9,984.3,494.4z"/>
		<path fill="#065151" d="M989.4,845.4c11.7-28.9,24.1-51.4,21.4-83.6c-12-0.7-23.3-2.4-35.1-3.9c0.7-16.6-3.9-49.8-16.1-58.9
			c-11.9-8.8-55.6-5.8-70.9-7.1c-1-2.8-2.5-12.9-2.3-15.4c17.3-4.6,70.5-1.6,82.3-14.7c13.6-15.1-0.1-65.6,1.1-85.9
			c32.4-8.9,13.6-56,14.5-81.5c-20.5,0-56.3-6.1-82.6-3.9c-16.7,42.7,0.9,85.2-9.7,127.1c-5.8,22.8-11.9,40.9-15.7,65.8
			c-3.6,23.5-15,33.3-23.2,54.1c-17.9,44.8,50.2,43.4,77.9,65.2c21.4,16.9,20.7,55.2,22.1,90.5C971.4,908.8,980.3,868,989.4,845.4z"
			/>
		<path fill="#064947" d="M924.8,557.9c-1.7,25.9,29.8,72.5-9,84c-1.7,12.4-0.1,21.8,0.6,31.4c21-1.4,44.8-3.3,52.3-11.5
			c13.6-15.1-0.1-65.6,1.1-85.9c32.4-8.9,13.6-56,14.5-81.5c-10.3,0-24.4-1.5-39.3-2.8C942.1,514.5,951.3,548.8,924.8,557.9z"/>
		<path fill="#064947" d="M1010.8,761.8c-12-0.7-23.3-2.4-35.1-3.9c0.7-16.6-3.9-49.8-16.1-58.9c-7.3-5.4-26.6-6.4-43.9-6.6
			c-0.3,1.7-0.7,3.3-1.2,5.1c-6.2,22.7-18.8,34.7,18.2,37.3c11,13.6,8.2,34.7,18.5,47.6c11.1,13.9,21.9,12.2,38.8,17.9
			c3.8,1.3,8.9,4.1,14.5,7.4C1009.4,793.6,1012.3,779.1,1010.8,761.8z"/>
	</g>
	<path clip-path="url(#SVGID_2_)" fill="#043D3A" d="M-29.4,114.7c8.2,22.6,35.7,89.1,57,40.2C54,201.6,14.3,301.5,66.8,331.1
		c38.9-39.8-5.6-156.3,65.2-173.9c7.9,9.9,16,22.5,19.1,35c53.6-2,20.3,201.2,106.7,92.9c22.7-28.5,27.1-65.7,46.5-94.6
		c42-62.7,27.5,48.9,57.1,21.2c5.4,12.5,16.7,61.6,32.2,62.2c19.8,0.7,18.1-56,24.6-71.7c30.1,4.3,22.7,42.6,24,65
		c56.2,24.7,33.8-68.1,92-57c8.1-14.9,11.9-49.3,30.5-54.2c30.1-7.9,20.5,31.9,18.7,49.4c-2.3,23-17,129.8,23.3,112.6
		c35.1-15,5.9-123.8,59.3-92.3c8.4,4.9,7.6,26.7,24.7,26.5c13.3-0.2,15.6-14.9,21.8-26.4c9.7-18.1,21.4-46.9,38.3-57.4
		c16.8,13.7,18.9,42.1,30.7,53.7c32,31.5,19.2-21.8,44.4-20.5c24.7,1.3,49.1,105,51.1,126c3.5,35.8,21.3,133.7,53,48.8
		c9-24,11.8-53.4,15.8-78.7c2.3-14,10.2-77.5,33-38.6c29.2-25.2,14.7-83.4,56.3-96c36.8,99.1,37.4-20.4,78.6-21.5
		c29.3-0.8,21.7,97.6,42.8,119.6c29.2-20.4,11.6,31.1,11.2,42.4c-0.9,25.5,8.6,39.2,21.8,59.6c28.9-23,14.5-111.4,28.6-146.6
		c4.8-12,23-43.8,42.5-42.2c22.3,1.8,28.7,46.5,42,60.6c16.9-10.4,17.7-54.2,36.2-54.6c14.9-0.3,28.2,44.3,38,48.4
		c38.9,16.4,58.8-77.6,64-102.1c5.5-25.8,1.9-45.9,0.6-69.8c-1.4-24.3,6.7-48,5.3-71.3c-2.4-39.8-16.5-31.9-50.9-36.6
		c-67.3-9.1-132.7-32.4-201.2-35.5C1078-91.6,960.5-75.7,846.6-52.5c-82.4,16.8-156.8,9.5-239.9,5.2c-94.4-4.9-187.8-12.9-282-20.3
		c-61.7-4.9-127.3-15-189-6c-37.7,5.5-70.3,9.3-108,11.3c-23.6,1.2-58.1,0.6-77.9,15.6C-77.2-26.3-62.1,0.5-62.4,27.7
		c-0.2,18-23.9,52.9-18.2,66.1c6,13.9,19.4,4.3,30.2,9C-38.1,107.9-41.5,109.9-29.4,114.7z"/>
	<path opacity="0.56" clip-path="url(#SVGID_2_)" fill="#065F65" d="M619.4,552.1c-5.9-24.5-4.8-44.1-10.5-68.3
		c-5.3-22.4-15.5-38.3-14.3-63.1c0.6-12.4,8.5-20.8,5.6-35.5c-5.1-0.5-3.3-18.2-8.5-18.5c-3.9-0.2-7.7,17.8-11.5,18.5
		c-2.9,15,5.9,48,8.5,65.6c3.5,24.1,10.2,40.6,6.1,66c-5.5,33.9-25.1,104.4-3.8,138C625.2,708.8,624.7,574.1,619.4,552.1z"/>
	<g clip-path="url(#SVGID_2_)">
		<path fill="#065151" d="M222.7,225.7c-25,3-40.1-27.2-59.3-33.2c-34.1-10.6-23.9,16-27.6,42.4c-3,21-11.6,38.3-9.2,62.9
			c2.1,21.7,9.2,43,8.5,65.4c-44.9,5.4-9.8,35.5-26.3,57.7c-9.6,12.9-18.8,2-27.1,23.9c-3.9,10.3-6.8,33.5-5.5,44.6
			c46.8,2.7,63.8,20.7,87.2,59.7c13,21.7,61.4,79.4,85.8,39.1c5.2-8.6-4.8-50.2-5.5-62.3c-1.2-23,1.3-46.3-0.7-69.1
			c-2.6-29.7-4.3-37.2-32.3-45.7c-23.5-7.1-42.6-1.9-35.6-34.8c45.3-12.5,42.5-25.3,53.4-66.5C232.4,295.1,276.1,219.2,222.7,225.7z
			"/>
		<path fill="#065F65" d="M196.5,536.9c-25.3-19.3-76.1-38.2-91.1-71.2c12.9-20.2,21.9-18.3,27.3-42c3.5-15.5-11.3-37.7,20.6-30.5
			c0.9-17.7-3.3-39.2,0.5-56.6c3.5-16.4,14-28.2,18.1-45c6.8-27.8,3.5-55.7,21.4-77.3c-10.2-8.3-19.4-18.7-29.8-22
			c-34.1-10.6-23.9,16-27.6,42.4c-3,21-11.6,38.3-9.2,62.9c2.1,21.7,9.2,43,8.5,65.4c-44.9,5.4-9.8,35.5-26.3,57.7
			c-9.6,12.9-18.8,2-27.1,23.9c-3.9,10.3-6.8,33.5-5.5,44.6c46.8,2.7,63.8,20.7,87.2,59.7c10.3,17.2,42.7,56.9,67.9,52.8
			C220.5,580.8,216.8,552.5,196.5,536.9z"/>
		<path fill="#054947" d="M243,456.7c-2.6-29.7-4.3-37.2-32.3-45.7c-3.7-1.1-7.3-1.9-10.7-2.7c-11.3,5.8-23,14.9-22.5,24.4
			c0.5,8.2,15.3,13.2,19,20.2c5.5,10.4,4.4,17.1,8.2,27.8c6.9,19.5,21.6,36.6,39.2,46.3c0-0.5-0.1-0.9-0.1-1.3
			C242.5,502.8,245,479.5,243,456.7z"/>
		<path fill="#054947" d="M175.2,334.2c0.1,12.4,10.4,17,23,14.9c-1.2,6.7,0,12.4,2.1,17.6c19.5-10.8,19.9-25.7,28.2-57.1
			c3.9-14.6,47.6-90.5-5.8-84c-2.5,0.3-4.9,0.3-7.2-0.1c-4.6,36-20.8,64-23.3,101.5C185.8,328.3,181.5,333.3,175.2,334.2z"/>
	</g>
	<path clip-path="url(#SVGID_2_)" fill="#065F65" d="M1086.7,60.7c0,96.6-6.2,195.1,20.3,284.8c5.7-34.7-7.9-74.7-8.3-110.8
		c-0.4-35,10.3-66.9,14.2-96.6c3.7-27.8,13.5-75.7,7.6-101.4c-3.5-15.1-16.4-33.6-30.1-20.4C1079.4,26.9,1095.6,46.9,1086.7,60.7z"
		/>
	<path clip-path="url(#SVGID_2_)" fill="#065F65" d="M1362.8,555.7c0-17.4,7.2-57.9-3-72.1c-22.3-30.9-16.5,27.9-12,45.1
		c-9.6,23.1,0.5,60.7,3,87c2.4,25.4,1.9,51.7,3.6,77.7C1375.7,666.6,1362.8,591.7,1362.8,555.7z"/>
	<path clip-path="url(#SVGID_2_)" fill="#065F65" d="M1266.8,201.7c0-17.4,7.2-57.9-3-72.1c-22.3-30.9-16.5,27.9-12,45.1
		c-9.6,23.1,0.5,60.7,3,87c2.4,25.4,1.9,51.7,3.6,77.7C1279.7,312.6,1266.8,237.7,1266.8,201.7z"/>
	<path clip-path="url(#SVGID_2_)" fill="#065F65" d="M825.7,399.7c-5,80.8,15.7,160.9,11.5,242.6c-35.2,7.1-22.4-152.2-23.5-178.9
		c-2.6-59.2,15.8-137-2.5-189.4C826.3,310.1,828.1,360.8,825.7,399.7z"/>
	<path clip-path="url(#SVGID_2_)" fill="#065F65" d="M38.8,469.4c-15,15.5,12.5,67.2,13.3,90.9c1.2,35.4,10.1,71.3,9.4,106.2
		c12.7-42.9,0.3-102.7,8.9-142.2c4.7-21.4,1.8-49.5,1.8-70.3c0-31.1-5-43.3-37.5-41.9C29.5,436.9,58.8,448.8,38.8,469.4z"/>
	<path clip-path="url(#SVGID_2_)" fill="#065F65" d="M467.9,265.4c-15,15.5,12.5,67.2,13.3,90.9c1.2,35.4,10.1,71.3,9.4,106.2
		c12.7-42.9,0.3-102.7,8.9-142.2c4.7-21.4,1.8-49.5,1.8-70.3c0-31.1-5-43.3-37.5-41.9C458.6,232.9,487.8,244.8,467.9,265.4z"/>
	<path clip-path="url(#SVGID_2_)" fill="#065F65" d="M336.7,108.7c-20.3,21,16.9,91,18,123c1.6,47.9,13.6,96.6,12.7,143.8
		c17.1-58,0.4-139,12-192.4c6.3-29,2.5-67,2.5-95.2c0-42.2-6.8-58.7-50.7-56.7C324,64.7,363.6,80.8,336.7,108.7z"/>
	<path clip-path="url(#SVGID_2_)" fill="#14413C" d="M861.7,759.7c28-9.3,34.3-47.7,44.3-72.2c11.7-28.7,26.9-58,43.4-83.9
		c13.5-21.2,27.1-40.9,50.3-48c30.8-9.4,44.4,5.3,63.8-27c13.9-23.2,28.8-107.4,62-111.3c23-2.7,32.6,32,63.3,19.1
		c16.8-7.1,26.4-33.6,48.1-27.9c56.4,14.9,25.1,121.1,63.3,144c14.7,8.8,25.3,23.1,30.4,39.5c3.2,10.4,7.9,20.4,13.4,29.6
		c6.9,11.6,12.8,20.9,24.7,27.9c10.1,5.9,32.6,2.9,39.1,8c15.2,11.8,8.4,49.2,18.2,66.2c17.1,29.3,52.3,36,35.6,78
		c-10.8,27.3-53.7,34.1-84.8,41.3c-64,14.7-118,10.6-183,3.1c-88.2-10.2-173.4-20.4-260-33c-34.9-5.1-101,1.1-80.6-49.8
		C856.3,762.4,858.8,760.7,861.7,759.7z"/>
	<path clip-path="url(#SVGID_2_)" fill="#1D6056" d="M1177.6,469.5c18-5.9,38.9-23.1,51.1-42.6
		C1212.5,437.9,1194.1,464.1,1177.6,469.5z"/>
	<path clip-path="url(#SVGID_2_)" fill="#1D6056" d="M1101.1,558.1c12.1-21.6,7.3-47.5,19.3-67.7c14.6-24.5,32.7-12.8,57.2-20.9
		c16.6-5.5,34.9-31.6,51.1-42.6c3.7-6,6.7-12.1,8.5-18.3c-0.1,0-0.2-0.1-0.3-0.1c-21.7-5.7-31.3,20.8-48.1,27.9
		c-30.6,12.9-40.2-21.8-63.3-19.1c-33.2,3.9-48.1,88.1-62,111.3c-19.4,32.3-33.1,17.6-63.8,27C985.7,560,975.1,569,966,580
		C1011.3,562,1067.8,617.5,1101.1,558.1z"/>
	<path clip-path="url(#SVGID_2_)" fill="#0F352F" d="M1473.8,795.8c-18.9-28.7-67.2-36.8-81.2-68.9c-7.3-16.8,3.8-35.3-2.1-51.2
		c-5-13.5-19.6-22.2-31.4-29.3c-36.4-22.2-39.2-39.7-58.6-78.5c-12.5-25-40.8-53.8-37.2-83.6c-24.6-12.8-31.5,21.8-38.6,38.5
		c-14.2,33.4-23.8,22.7-54.7,35.3c-43.1,17.6-40.6,71.2-83.3,90.1c-22.7,10.1-36.9,13.3-57.7,29.8c-16,12.7-32.4,30.6-48.1,42.1
		c-12.3,9-47.9,18.8-52.7,36.7c-6.9,26.2,41.2,25.6,63.2,30.2c94.8,19.8,186.1,52.8,284.4,47.9c35.3-1.8,67.6-8.6,101.9-15.2
		C1401.7,815,1455.6,810.6,1473.8,795.8z"/>
	<path clip-path="url(#SVGID_2_)" fill="#0E3029" d="M1047.7,780.7c5.6-22.7,28.5-59.4,48.1-74.4c19.8-15.2,45.7-16.3,65.1-31.3
		c29.6-23,61.3-107.5,105.2-52.6c17.6,22,20.4,30.4,43.3,46.7c21.8,15.5,18.8,25,29.5,51.5c8.1,20,17.9,35.3,36.4,50.4
		c16,13.1,45.5,20,14.5,42.2c-19.5,14-71.7,11.4-95.4,12.5c-44.3,2-88.6,2-132.1-0.1c-37.1-1.8-73.7,8.8-108.7-2.9
		C1008.8,807.6,1040.4,810.5,1047.7,780.7z"/>
	<path clip-path="url(#SVGID_2_)" fill="#0F352F" d="M69.6,858.7c57.4-8.6,115.6-12.2,173.2-18c130-13.1,264.5-0.1,393.8-14.1
		c-0.2-5.4-0.3-10.7,0-15.8c0.5-9.8,0.6-19.6,0.2-29.4c-6-25.3-11.8-50.7-17.1-76.6c-16.8-32.1-44.5-40.1-84.4-53.7
		c-16.4-5.6-26.6-17.6-36-29.4c-2.8-2.8-5.4-5.8-7.9-9.7c-11.8-14-24.9-24.9-50-20.4c-22.9,4.2-36.6,22.2-59.1-0.4
		c-17-17.1-14.5-42.7-24.8-62.3c-28.4-54.4-70.9-4.2-99,26.8c-12.9,14.3-29.8,30.9-39.9,47.3c-10.9,17.7-14.7,42.3-28.4,57.9
		c-34.3,39.2-85.7,30.4-105.7,86.9c-18.9,53.5-83.9,100.5-145,104.7c0.2,3,0.5,6.1,0.7,9.2c4.7-3.6,9.8-5.9,15.2-5.8
		c-5.5,0-10.6,2.2-15.2,5.8c0.2,2.9,0.5,5.8,0.7,8.7C-20.1,877.1,31.1,864.5,69.6,858.7z"/>
	<path clip-path="url(#SVGID_2_)" fill="#0E3029" d="M180.6,846.8c5-21.8,32.3-46.6,42.7-69c12.2-26.4,24.2-48,40.7-72
		c22.6-32.9,33-109.1,85.4-81.8c19,9.9,24.6,29.1,50.2,24.9c22.6-3.7,32-25.2,59.3-20.5c18.3,3.2,39,19.1,51.1,33.1
		c5.7,6.5,8.5,18.1,14.7,23.9c13.9,13.1,18.9,6.9,33.9,14.3c28.6,13.9,58.2,67.8,48.1,102.1c-13.2,44.7-91.6,30.2-129.9,35.8
		C375.2,852.5,281.3,850.5,180.6,846.8z"/>
	<path clip-path="url(#SVGID_2_)" fill="#14413C" d="M84.7,747.7c19.9-56.5,71.4-47.7,105.7-86.9c13.6-15.6,17.5-40.2,28.4-57.9
		c10.1-16.4,27-33,39.9-47.3c28.1-31,70.6-81.2,99-26.8c10.2,19.6,7.8,45.2,24.8,62.3c22.5,22.6,36.2,4.6,59.1,0.4
		c25-4.5,38.2,6.4,50,20.4c-0.9-1.4-1.7-2.9-2.6-4.5c-2.5-4.8-6-25.9-8-27.9c-17.4-17.2-36.2,4.8-58-5.1
		c-21.2-9.7-19.6-29.7-26.9-48.1c-8.5-21.2-24.1-41.3-31.6-63.8c-9.3-28-24.5-110.9-64.4-69.1c-34.5,36.2-28.5,84.2-89.3,81.2
		c-53.8-2.7-91.3-21.2-108,42c-15.9,60.4-68.4,27-105,66c-21.8-26.3-72.8,67.3-75,87c-3.6,32.1,10.8,67.1,12,99.7
		c1.1,28.5,2.9,55.6,5,83C0.8,848.3,65.8,801.3,84.7,747.7z"/>
	<path clip-path="url(#SVGID_2_)" fill="#14413C" d="M636.7,810.8c-0.3,5.1-0.2,10.4,0,15.8c3.6-0.4,7.3-0.8,10.9-1.2
		c-3.6-14.7-7.2-29.3-10.7-43.9C637.3,791.1,637.2,800.9,636.7,810.8z"/>
	<path clip-path="url(#SVGID_2_)" fill="#14413C" d="M535.4,651.1c39.9,13.6,67.6,21.6,84.4,53.7c-0.3-1.7-0.7-3.3-1-5
		c-8.5-41.9-72-38.4-104.3-65.3c-5.9-4.9-10.8-8.5-15.1-12.7C508.8,633.5,519,645.5,535.4,651.1z"/>
	<path clip-path="url(#SVGID_2_)" fill="#1D6056" d="M24,633c21-18.1,37.4-19.1,60.7-32.2c27.3-15.3,28.3-39,33.7-65.4
		c3.6-17.7,4-44.7,21-57c25.7-18.6,39.1,2.8,60,10.7c44.5,16.7,90-5.3,116.3-41.3c8.5-11.6,20.6-28.6,27.9-46.1
		c-9.9-18.8-23.7-28.9-43.5-8.1c-34.5,36.2-28.5,84.2-89.3,81.2c-53.8-2.7-91.3-21.2-108,42c-15.9,60.4-68.4,27-105,66
		c-21.8-26.3-72.8,67.3-75,87c-0.2,1.9-0.4,3.9-0.5,5.8c9.6-1.9,19.1-3.4,27.5-5.2C-17.8,663.4-1.4,654.8,24,633z"/>
	<g clip-path="url(#SVGID_2_)">
		<path fill="#073D38" d="M93.6-26.3c15.5,29.8,12,70.1,20.9,102.1c9.8,35.3,32.6,41,60.9,62.2c32,24,29.2,48.8,29.2,87.8
			c0,10.4-1.8,25.7-2.2,41.1c-0.5,18.4,26.6,20.4,28.7,2.1c3.1-26.4,7.8-52.4,24.1-55.9c5.5-1.2,9.9-5.2,11-10.7
			c0-0.1,0-0.2,0.1-0.3c2.1-9.5,8.7-17.2,17.7-21c27.2-11.6,58.1-53.4,71.4-75.3c16.8-27.5,61.4-93.2,55.6-126.1
			c-7.5-42.8-136.2-16.6-171-15C207.2-33.9,105.6-59.9,93.6-26.3z"/>
		<path fill="#08443D" d="M347,27c-17-5.4-41.8-3.1-60-3c-20.9,0.1-41.3-4-62.2-4c-23.7,0-54-2.7-73.8,12.8
			c-10.9,8.5-19,31.6-13.2,45.5c5.6,13.5,25.5,32.8,37.3,40c26.7,16.4,43.1,34.7,38.2,67.6c-3.9,26.7-4.5,52.7-3.1,80
			c10.6,5.1,19.6-33.5,22.7-40.8c3.5-8.2,5.7-14,14-18.2c9.1-4.6,12-3.1,16.3-13.8c7.4-18.5,11.2-25.2,28.9-35.7
			c15.6-9.2,29.7-18.7,40.8-33.3C349.3,102.2,381.3,37.8,347,27z"/>
		<path opacity="0.3" fill="#085B4F" d="M340,73l-2,6c-7.9-3.2-22.2,2.9-30.8,4.2c-10.3,1.5-21.4,2.8-31.4,6
			c-22.6,7.1-30.2,23.9-35.8,45c-2.9,11-33.5,106.9-18,106.8c12.7-0.1,16.6-35.4,23.3-43c6.2-7.1,12.4-6.2,16.5-16
			c3.4-8.2,3.7-16.5,8.5-23.8c18.9-29.2,62-25.9,72.6-60.4C345.2,89.7,347.6,79,340,73z"/>
		<path opacity="0.61" fill="#085B4F" d="M229,147c2.8-15.5-19.8-33.4-30.2-41.8c-4.1-3.3-13.3-11.4-19.5-7c-6.2,4.4-0.3,17,3,21.6
			c9,12.8,27.1,15.1,32.6,30.4c1.6,4.5,0.4,17.6,9.5,13.1C228.5,161.2,228.3,151,229,147z"/>
	</g>
	<g clip-path="url(#SVGID_2_)">
		<path fill="#094A46" d="M606.7-20.3C643.2,3,675.5,45.9,699.8,81.6c16.8,24.7,28.3,60.3,59.9,69.2c27.5,7.7,44.5-5,69.2,14.9
			c18.8,15.2,33.2,37.9,48.6,56.9c15,18.5,25.5,40.3,49.6,32.4c29.8-9.7,16.4-32.2,12.1-53.3c-3.2-15.7-13.4-58.9-3.1-72.7
			c12.6-16.9,43.4-2.3,63.7-2.3c48.7,0.1,107.7-21.6,150-48c34.9-21.8,92.2-97.2,24-105c-78.2-9-161.4-12.1-240.2-12
			c-77.4,0.1-154.6-18-230.9-18C673.5-56.3,627.4-41.9,606.7-20.3z"/>
		<path fill="#0F5952" d="M969.7,9.7c-43.9,2.3-91.9,21.1-135.2,29.8c-12.5,2.5-47.3,7-56.1,18.8c-15.8,21.3,9.8,35,27,49.6
			c16.7,14.2,35.1,26.2,50.3,42.7c17.3,18.8,19.1,37.7,30.5,56.4c12.7,20.8,28.6,32.5,38.4,9.6c8.3-19.3-2.3-53.8,0-75
			c5-46.1,29.9-37.5,69-36c35,1.4,69.9-5.4,92.4-32.9C1152.9-9.2,1018,7.2,969.7,9.7z"/>
		<path fill="#146359" d="M954.7,57.7c-69,9-93.5,3.3-93,45c0.3,25.5,28.4,113.6,48,129.4c36.8-38-31.5-111,35.9-135.5
			c14.1-5.1,68.2,1.8,74.5-15.5C1030.3,52.7,968.9,55.8,954.7,57.7z"/>
	</g>
	<path clip-path="url(#SVGID_2_)" fill="#094A46" d="M186.6-53.3C174-28.7,234.2,44.9,254.9,64.5c32.2,30.4,81.1,6.7,109.5,47.1
		c12.7,18.1,9,38,29.3,51.1c18.9,12.2,36.1,6.2,54,27c27.4,32,1.3,89.4,39,114.3c29.5-27.7,4.3-100.4,21-135.5
		c11.9-25,36.6-10.1,54.8-23c16.6-11.8,15.4-30.7,37.5-40.5c20.9-9.2,46.7-9.4,69.7-19.7c30.2-13.5,24.5-19.6,36-48.7
		c12.2-30.8,25.2-13.2,48-33c23.1-20.1,11.9-44.4-14.3-54.1c-20.9-7.7-50.6-6.9-72.7-9.1c-38.6-3.7-75.4-14.3-114-20
		c-60.5-9-119.4-19.1-180-21.8C320.8-103.7,212.9-104.3,186.6-53.3z"/>
	<path clip-path="url(#SVGID_2_)" fill="#094A46" d="M621.7,12.7c-45.6,4.4-85.9,24.6-135,9c-27.7-8.8-34.2-16.4-62.3-2.2
		c-10.8,5.4-12.2,14.2-24.8,17.2c-12.3,3-23.8-4.3-36.1-3.1C334,36.2,301.8,62.3,272.9,76c30.5,12.6,68,2.1,91.5,35.6
		c12.7,18.1,9,38,29.3,51.1c18.9,12.2,36.1,6.2,54,27c27.4,32,1.3,89.4,39,114.3c29.5-27.7,4.3-100.4,21-135.5
		c11.9-25,36.6-10.1,54.8-23c16.6-11.8,15.4-30.7,37.5-40.5c20.9-9.2,46.7-9.4,69.7-19.7c30.2-13.5,24.5-19.6,36-48.7
		c0.9-2.3,1.8-4.3,2.7-6.1C679.7,23.1,649.6,10,621.7,12.7z"/>
	<path clip-path="url(#SVGID_2_)" fill="#08443E" d="M753.7,3.7c23.1-20.1,11.9-44.4-14.3-54.1c-20.9-7.7-50.6-6.9-72.7-9.1
		c-38.6-3.7-75.4-14.3-114-20c-60.5-9-119.4-19.1-180-21.8c-51.9-2.3-159.8-3-186,48C174-28.7,234.2,44.9,254.9,64.5
		c5.6,5.3,11.6,8.9,18,11.5c28.9-13.7,61.1-39.8,90.6-42.5c12.4-1.1,23.8,6.2,36.1,3.1c12.5-3.1,13.9-11.8,24.8-17.2
		c28-14.1,34.6-6.6,62.3,2.2c49.1,15.6,89.4-4.6,135-9c27.9-2.7,58,10.5,86.7,18C719.9,8.3,732.6,22,753.7,3.7z"/>
	<path clip-path="url(#SVGID_2_)" fill="#004C45" d="M-32.4,800.8c0,0,186-24.3,348-14.6c61,3.7,276-43.7,342-21.8
		c66,21.8,237-10.6,354,0c57.1,5.2,129,0,201,2.4c72,2.4,210-2.4,210-2.4l45,235.3l-1494.1,12.1L-32.4,800.8z"/>
	<path clip-path="url(#SVGID_2_)" fill="#03443C" d="M440.6,852.5c-57.4-1-114.8-2.1-172.2-3.1c-62.3-1.1-128.5-1.2-181.5,31.5
		c59.9,22.7,119.8,45.3,179.8,68c26.7,10.1,53.5,20.2,81,27.8c95,26.1,198.5,20.3,290-16.1c38.8-15.4,76-36.4,117.2-43.5
		c75.6-13.1,153.2,22,229.1,10.5c36.1-5.5,69.8-21.2,102.8-36.8c58.5-27.6,117.1-55.2,175.6-82.7c-157.3,34.8-322.2,69.6-477.6,27.1
		c-30.2-8.3-60.4-19.5-91.8-19c-36,0.6-69.7,16.6-104.6,25.7C540.4,854.3,490.1,853.4,440.6,852.5z"/>
	<path opacity="0.68" clip-path="url(#SVGID_2_)" fill="#043830" d="M467.4,973.7c-41.3,6.5-83.3,6.3-125,6.2
		c-96.6-0.3-193.1-0.6-289.7-0.9c49-27,100-54.7,155.9-58.9c36.9-2.8,73.8,4.9,109.8,13.3C368.5,945.3,418.2,958.7,467.4,973.7z"/>
	<path opacity="0.48" clip-path="url(#SVGID_2_)" fill="#043830" d="M1133.1,974.4c-113.8,9.5-228.3,5.1-342.5,0.7
		c-17.2-0.7-34.9-1.4-50.5-8.7c-15.6-7.3-28.7-22.8-27.6-40c1.3-21.1,23.5-35.9,44.7-36.8c21.1-0.9,41.2,8.5,60.3,17.5
		c63,29.7,128.3,58.6,197.9,62.3c28.8,1.5,58.7-2.2,86.3-11.4c48.3-16,81.9-58.8,88.8-109.2c2.6-19.2,12.6-37.8,27.3-50.7
		c24.5-21.4,59.2-28.4,91.6-24.7c20.2,2.3,42,10.1,51.3,28.1c3.5,6.9,2.6,13-0.5,18.9c-11.3,21.3-9.3,47.2,6.3,65.6
		c1.7,2,3.1,4.3,3.9,6.8c5.2,15.2-3.8,32.3-16.9,41.5c-13.1,9.2-29.4,12.3-45.2,15.2c-25.5,4.7-51.1,9.3-76.8,13.3
		C1198.8,967.8,1166,971.7,1133.1,974.4z"/>
	<path opacity="0.32" clip-path="url(#SVGID_2_)" fill="#00302C" d="M488,912.8C342,924,195.9,935.2,49.8,946.4
		c124.2,11.9,248.4,23.8,372.6,35.7c255.5,24.5,525,46.7,758.2-60.6c-184.2,0.7-368.4,1.3-552.6,2c-103.6,0.4-207.1,0.7-310.7,1.1"
		/>
	<path opacity="0.32" clip-path="url(#SVGID_2_)" fill="#00302C" d="M605.6,883.7c-234.6-80.1-494.6-83.8-731.5-10.6
		c19.6,3.7,39.3,7.4,58.9,11c23.5,4.4,33.5-1.2,61.6,40.6l39,3C216.2,919.7,397.3,927.2,605.6,883.7z"/>
	<g clip-path="url(#SVGID_2_)">
		<polygon fill="#F4ECFF" points="559.8,540.1 591.1,525.9 562.6,545.2 593.3,560.8 560.4,550.6 567.3,584.3 554.8,552.3 
			532.8,578.7 550.1,548.9 515.7,548.1 549.7,543.1 528.9,515.7 554,539.2 562.4,505.8 		"/>
		<g>
			<polygon fill="#F4ECFF" points="661.8,957.1 681.3,645.1 787.8,570.1 850.8,682.6 699.3,973.6 			"/>
			<polygon fill="#A7DFFE" points="661.8,957.1 684.3,645.1 786.3,576.1 778.7,583.3 721.8,637.6 786.3,580.6 802.8,684.1 
				792.3,580.6 823.8,649.6 816.3,624.1 847.8,684.1 699.3,973.6 			"/>
			<polygon fill="#83D0F2" points="711.3,660.1 787.7,658.3 817,698.3 			"/>
			<polygon fill="#6FB4F9" points="661.8,957.1 711.3,660.1 813.3,696.1 694.8,976.6 			"/>
			<polygon fill="#6FB4F9" points="661.8,957.1 705.7,659 684.3,645.1 			"/>
			<polygon fill="#6FB4F9" points="847.8,684.1 817.7,695.7 694.8,976.6 699.3,973.6 			"/>
			<polygon fill="#F4ECFF" points="772.3,681 817.7,695.7 755.7,836.3 809.7,697 			"/>
			<polygon fill="#83D0F2" points="799,592.3 847.8,684.1 821.7,695 			"/>
			<polygon fill="#F4ECFF" points="794.3,583.7 838.3,681 786.3,576.1 			"/>
			<polygon fill="#56A6E8" points="661.8,957.1 725,703.7 782.3,723.7 694.8,976.6 			"/>
			<polygon fill="#439AD6" points="694.8,976.6 808.3,727 817,733 699.3,973.6 			"/>
			<polygon fill="#439AD6" points="661.8,957.1 700.3,669.7 685,667 			"/>
			<polygon fill="#439AD6" points="667,959 727,717 747.7,805 694.8,976.6 			"/>
		</g>
		<g>
			<polygon fill="#F4ECFF" points="670.5,997 366.6,924.2 311,806.4 432.6,763.7 693.2,962.9 			"/>
			<polygon fill="#A7DFFE" points="670.5,997 367.1,921.2 316.6,808.9 322.4,817.6 366.1,883 321.1,809.7 425.9,811.2 322.1,803.8 
				395.5,784.6 369.1,787.6 433.6,766.9 693.2,962.9 			"/>
			<polygon fill="#83D0F2" points="386.5,897.2 397.9,821.7 442.3,799.6 			"/>
			<polygon fill="#6FB4F9" points="670.5,997 386.5,897.2 439.5,802.9 695.4,967.9 			"/>
			<polygon fill="#6FB4F9" points="670.5,997 384.4,902.6 367.1,921.2 			"/>
			<polygon fill="#6FB4F9" points="433.6,766.9 439.8,798.5 695.4,967.9 693.2,962.9 			"/>
			<polygon fill="#F4ECFF" points="417.6,840.7 439.8,798.5 567.7,883.8 439.7,806.6 			"/>
			<polygon fill="#83D0F2" points="334.8,799.1 433.6,766.9 439.8,794.5 			"/>
			<polygon fill="#F4ECFF" points="325.4,802.3 428.9,775.6 316.6,808.9 			"/>
			<polygon fill="#56A6E8" points="670.5,997 431.7,891.2 461.3,838.1 695.4,967.9 			"/>
			<polygon fill="#439AD6" points="695.4,967.9 469.1,813.1 476.5,805.6 693.2,962.9 			"/>
			<polygon fill="#439AD6" points="670.5,997 394,909.6 388.7,924.3 			"/>
			<polygon fill="#439AD6" points="673.3,992.2 445.2,891.5 535.5,886.3 695.4,967.9 			"/>
		</g>
		<g>
			<polygon fill="#F4ECFF" points="681.3,960.8 847.1,747.7 959.6,746.1 949.8,857 700,990.9 			"/>
			<polygon fill="#A7DFFE" points="681.3,960.8 849.2,749.2 955.6,749.6 946.7,751.1 879.6,762.1 953.4,752.8 914.8,834.7 
				957.7,755.7 946.6,820.3 953.6,798.5 946.9,856.6 700,990.9 			"/>
			<polygon fill="#83D0F2" points="861.2,773 916.6,808.9 918,851.8 			"/>
			<polygon fill="#6FB4F9" points="681.3,960.8 861.2,773 916.4,848.4 695.3,990.8 			"/>
			<polygon fill="#6FB4F9" points="681.3,960.8 857.7,769.5 849.2,749.2 			"/>
			<polygon fill="#6FB4F9" points="946.9,856.6 919.8,850.2 695.3,990.8 700,990.9 			"/>
			<polygon fill="#F4ECFF" points="894.6,817.7 919.8,850.2 807.1,920.4 913.4,847.2 			"/>
			<polygon fill="#83D0F2" points="956.8,767.4 946.9,856.6 923,851.7 			"/>
			<polygon fill="#F4ECFF" points="957.7,758.9 941.7,849.8 955.6,749.6 			"/>
			<polygon fill="#4187B7" points="681.3,960.8 849.8,810.8 881,853 695.3,990.8 			"/>
			<polygon fill="#439AD6" points="695.3,990.8 897.9,868 901.1,876.5 700,990.9 			"/>
			<polygon fill="#439AD6" points="681.3,960.8 848.7,774.5 839.1,765.1 			"/>
			<polygon fill="#37779B" points="684.1,964.7 844.7,821.3 816.6,894.1 695.3,990.8 			"/>
		</g>
		<g>
			<polygon fill="#F4ECFF" points="677.4,975.4 672.2,603.6 560.2,534.9 519.5,645.9 657.4,965.4 			"/>
			<polygon fill="#439AD6" points="657.4,965.4 571,647 519.7,645.7 			"/>
			<polygon fill="#6FB4F9" points="579,643 653,619 677.4,975.4 657.4,965.4 			"/>
			<polygon fill="#439AD6" points="672.2,603.6 657,618.3 677,962.3 			"/>
			<polygon fill="#439AD6" points="521.7,641 570.3,643 560.8,540.4 560.2,534.9 			"/>
			<polygon fill="#A7DFFE" points="575.7,640.3 652.3,617 672.2,603.6 560.2,534.9 			"/>
			<polygon fill="#439AD6" points="652.3,617 560.2,534.9 672.2,603.6 			"/>
			<polygon fill="#F4ECFF" points="560.2,534.9 541,587 557.7,549 568.3,607 563,545.7 633.7,601 			"/>
			<polygon fill="#56A6E8" points="593.7,655 657.4,965.4 677.4,975.4 646.3,634.3 			"/>
			<polygon fill="#338BBC" points="657.4,965.4 567,661 530.3,656.3 			"/>
			<polygon fill="#338BBC" points="601,657.7 643.7,663.7 677.4,975.4 657.4,965.4 			"/>
			<polygon fill="#338BBC" points="672.3,617.7 661,631.7 677,971.7 			"/>
		</g>
		<g>
			<polygon fill="#F4ECFF" points="682.4,1002.9 550,873.8 565.9,785.6 646.4,792.9 707.5,988.1 			"/>
			<polygon fill="#A7DFFE" points="682.4,1002.9 551.4,872.1 567.9,788.8 567.6,795.7 565.6,848.2 569.9,790.5 624.6,820.4 
				572.8,787.1 618.8,795.5 603.7,790.1 645.7,795.1 707.5,988.1 			"/>
			<polygon fill="#83D0F2" points="570.9,862.7 605.8,819.1 637.7,817.8 			"/>
			<polygon fill="#6FB4F9" points="682.4,1002.9 570.9,862.7 635,819 706.8,991.8 			"/>
			<polygon fill="#6FB4F9" points="682.4,1002.9 567.7,865.4 551.4,872.1 			"/>
			<polygon fill="#6FB4F9" points="645.7,795.1 636.8,816.4 706.8,991.8 707.5,988.1 			"/>
			<polygon fill="#F4ECFF" points="609,836.3 636.8,816.4 671.6,904.5 633.7,821.4 			"/>
			<polygon fill="#83D0F2" points="581.2,787.8 645.7,795.1 638.4,813.9 			"/>
			<polygon fill="#F4ECFF" points="575.1,787.1 639.9,799.2 567.9,788.8 			"/>
			<polygon fill="#4187B7" points="682.4,1002.9 597.1,871.4 633,846.8 706.8,991.8 			"/>
			<polygon fill="#439AD6" points="706.8,991.8 646.7,833.5 653.5,830.9 707.5,988.1 			"/>
			<polygon fill="#439AD6" points="682.4,1002.9 570.1,872.4 561.7,880 			"/>
			<polygon fill="#37779B" points="685.7,1000.7 604.1,875.4 653.7,897.1 706.8,991.8 			"/>
		</g>
	</g>
	<g clip-path="url(#SVGID_2_)">
		<polygon fill="#F4ECFF" points="1208.2,576.6 1222.5,577.5 1208.2,579.1 1216.5,590.9 1206.3,580.6 1202.3,594.4 1204,580.1 
			1190.6,585.6 1202.9,578 1190.3,570.9 1203.9,575.8 1201.5,561.6 1206.2,575.2 1215.9,564.5 		"/>
		<g>
			<polygon fill="#F4ECFF" points="1164,750.6 1232.4,639.2 1286.5,632.4 1287.7,686.3 1174.6,764 			"/>
			<polygon fill="#A7DFFE" points="1164,750.6 1233.5,639.8 1284.7,634.4 1280.5,635.5 1248.9,644.4 1283.8,636 1269.6,677.5 
				1286.1,637.2 1284.2,668.8 1286.4,658 1286.3,686.3 1174.6,764 			"/>
			<polygon fill="#83D0F2" points="1240.6,650.7 1269.1,665 1272.1,685.5 			"/>
			<polygon fill="#6FB4F9" points="1164,750.6 1240.6,650.7 1271.2,684 1172.4,764.3 			"/>
			<polygon fill="#6FB4F9" points="1164,750.6 1238.7,649.1 1233.5,639.8 			"/>
			<polygon fill="#6FB4F9" points="1286.3,686.3 1272.9,684.6 1172.4,764.3 1174.6,764 			"/>
			<polygon fill="#F4ECFF" points="1259,670.3 1272.9,684.6 1222.4,724.4 1269.7,683.6 			"/>
			<polygon fill="#83D0F2" points="1286.2,642.8 1286.3,686.3 1274.5,685.2 			"/>
			<polygon fill="#F4ECFF" points="1286.2,638.7 1283.4,683.3 1284.7,634.4 			"/>
			<polygon fill="#56A6E8" points="1164,750.6 1237.1,669.4 1254.3,688.1 1172.4,764.3 			"/>
			<polygon fill="#439AD6" points="1172.4,764.3 1263.3,694.4 1265.3,698.3 1174.6,764 			"/>
			<polygon fill="#439AD6" points="1164,750.6 1234.7,652 1229.5,648 			"/>
			<polygon fill="#439AD6" points="1165.6,752.3 1235.2,674.7 1225.6,711.3 1172.4,764.3 			"/>
		</g>
		<g>
			<polygon fill="#F4ECFF" points="1162.4,763.5 1054.1,731.8 1036.1,688.3 1080.7,675.1 1171.2,751.6 			"/>
			<polygon fill="#A7DFFE" points="1162.4,763.5 1054.3,730.7 1038.1,689.3 1040,692.6 1054.6,716.9 1039.7,689.7 1077.5,692.1 
				1040.2,687.6 1067,682 1057.4,682.6 1081,676.2 1171.2,751.6 			"/>
			<polygon fill="#83D0F2" points="1061.7,722.4 1067.2,695.4 1083.6,688.2 			"/>
			<polygon fill="#6FB4F9" points="1162.4,763.5 1061.7,722.4 1082.5,689.3 1171.9,753.4 			"/>
			<polygon fill="#6FB4F9" points="1162.4,763.5 1060.9,724.3 1054.3,730.7 			"/>
			<polygon fill="#6FB4F9" points="1081,676.2 1082.7,687.8 1171.9,753.4 1171.2,751.6 			"/>
			<polygon fill="#F4ECFF" points="1073.9,702.6 1082.7,687.8 1127.3,720.8 1082.5,690.7 			"/>
			<polygon fill="#83D0F2" points="1044.8,686.1 1081,676.2 1082.8,686.3 			"/>
			<polygon fill="#F4ECFF" points="1041.4,687.1 1079.2,679.3 1038.1,689.3 			"/>
			<polygon fill="#4187B7" points="1162.4,763.5 1078.2,721 1089.8,702.4 1171.9,753.4 			"/>
			<polygon fill="#439AD6" points="1171.9,753.4 1093,693.5 1095.8,691 1171.2,751.6 			"/>
			<polygon fill="#439AD6" points="1162.4,763.5 1064.2,727 1062.1,732.2 			"/>
			<polygon fill="#37779B" points="1163.5,761.8 1083,721.4 1115.7,721.1 1171.9,753.4 			"/>
		</g>
		<g>
			<polygon fill="#F4ECFF" points="1166.2,760.4 1237.2,622.1 1209.4,574.8 1172.5,607.8 1160.8,752.8 			"/>
			<polygon fill="#439AD6" points="1160.8,752.8 1191.3,618.3 1172.7,607.7 			"/>
			<polygon fill="#6FB4F9" points="1195.1,618.4 1227.1,624 1166.2,760.4 1160.8,752.8 			"/>
			<polygon fill="#439AD6" points="1237.2,622.1 1228.7,624.6 1168.6,755.5 			"/>
			<polygon fill="#439AD6" points="1174.3,606.4 1191.9,616.7 1208.5,576.9 1209.4,574.8 			"/>
			<polygon fill="#A7DFFE" points="1194.4,616.7 1227.3,623.2 1237.2,622.1 1209.4,574.8 			"/>
			<polygon fill="#439AD6" points="1227.3,623.2 1209.4,574.8 1237.2,622.1 			"/>
			<polygon fill="#F4ECFF" points="1209.4,574.8 1192,590.3 1205.6,579.5 1198.2,603 1208.3,579.3 1223.5,613.6 			"/>
			<polygon fill="#56A6E8" points="1198.1,625.7 1160.8,752.8 1166.2,760.4 1221.6,628.4 			"/>
			<polygon fill="#338BBC" points="1160.8,752.8 1187.1,622.7 1174.5,613.8 			"/>
			<polygon fill="#338BBC" points="1200.3,628.1 1214.9,638.7 1166.2,760.4 1160.8,752.8 			"/>
			<polygon fill="#338BBC" points="1234.5,627.3 1227.6,630.3 1166.8,759 			"/>
		</g>
		<g>
			<polygon fill="#F4ECFF" points="1152.1,766.4 1096.6,671 1119.8,622.9 1165,639.9 1168.9,761.9 			"/>
			<polygon fill="#A7DFFE" points="1152.1,766.4 1097.7,670.3 1120.5,625 1119.2,629 1109.7,658.8 1121.4,626.3 1148.1,652.2 
				1123.6,624.8 1148.7,637 1140.9,631.5 1164.2,641.1 1168.9,761.9 			"/>
			<polygon fill="#83D0F2" points="1110.4,668 1137.5,648.5 1156,652.8 			"/>
			<polygon fill="#6FB4F9" points="1152.1,766.4 1110.4,668 1154.2,653.1 1167.9,763.9 			"/>
			<polygon fill="#6FB4F9" points="1152.1,766.4 1108.2,669 1097.7,670.3 			"/>
			<polygon fill="#6FB4F9" points="1164.2,641.1 1155.7,651.9 1167.9,763.9 1168.9,761.9 			"/>
			<polygon fill="#F4ECFF" points="1136.5,658.9 1155.7,651.9 1161.6,708.1 1153.1,654.3 			"/>
			<polygon fill="#83D0F2" points="1128.3,626.5 1164.2,641.1 1157,650.7 			"/>
			<polygon fill="#F4ECFF" points="1124.9,625.2 1160.2,642.5 1120.5,625 			"/>
			<polygon fill="#4187B7" points="1152.1,766.4 1124,677.2 1148.6,668.8 1167.9,763.9 			"/>
			<polygon fill="#439AD6" points="1167.9,763.9 1158.6,663.3 1163,662.9 1168.9,761.9 			"/>
			<polygon fill="#439AD6" points="1152.1,766.4 1108.4,673.4 1102.3,676.5 			"/>
			<polygon fill="#37779B" points="1154.4,765.7 1127.4,680.6 1152.5,701 1167.9,763.9 			"/>
		</g>
	</g>
	<path opacity="0.32" clip-path="url(#SVGID_2_)" fill="#00302C" d="M1246.3,841.4c17-4,36.3-2.6,49.8,8.5
		c6.7,5.5,11.5,12.9,16.1,20.2c0.9,1.4,1.8,2.8,2.7,4.2c7.5,11.8,15,23.6,22.5,35.3c-17.2-6.2-36.1,0.1-54.2,2.7
		c-18.1,2.6-40.6-1-47.7-17.9c-15.9,2.4-31.7,4.7-47.6,7.1c-11.7,1.7-27.3,1.1-30.6-10.2c-2.4-8.2,4.6-16.6,12.7-19.2
		s16.8-0.7,25.1,1.1C1208.1,857.4,1226.4,846.1,1246.3,841.4z"/>
	<g clip-path="url(#SVGID_2_)">
		<path fill="#5F6362" d="M837.1,929.5c14.1,5.5,26.9,13.9,39.6,22.3c5.6,3.7,11.8,8.8,10.9,15.4c-1,7.5-10.2,10.3-17.6,11.5
			c-15.4,2.5-30.7,5-46.1,7.5c-22.8,3.7-46.5,7.4-68.7,1c-7.6-2.2-15.1-5.6-23-5.6c-5.5,0-11,1.7-16.4,1
			c-13.3-1.6-13.7-12.2-6.2-23.2c8.2-11.9,14.4-32.4,26.8-37.3c16.5-6.5,23-3.7,40.7-2.9C797.5,920.3,818.2,922.1,837.1,929.5z"/>
		<path fill="#5F6362" d="M731.1,944.3c-0.2-0.1-0.4-0.3-0.6-0.4C730.7,944,730.9,944.2,731.1,944.3z"/>
		<path fill="#5F6362" d="M736.7,946.6c-0.7-0.2-1.4-0.4-2.1-0.6C735.2,946.3,735.9,946.5,736.7,946.6z"/>
		<path fill="#5F6362" d="M733.2,945.5c-0.3-0.1-0.6-0.3-0.8-0.4C732.6,945.2,732.9,945.3,733.2,945.5z"/>
		<path fill="#5F6362" d="M725.5,935.9c0-0.1,0-0.1,0-0.2C725.5,935.7,725.5,935.8,725.5,935.9z"/>
		<path fill="#707574" d="M725.5,935.3C725.5,935.3,725.5,935.3,725.5,935.3c0,0.1,0,0.3,0,0.4c0,0.1,0,0.1,0,0.2
			c0.1,0.9,0.3,1.8,0.7,2.7c0,0,0,0.1,0,0.1c0,0.1,0.1,0.1,0.1,0.2c0.1,0.1,0.1,0.2,0.2,0.4c0,0,0,0.1,0,0.1
			c0.1,0.1,0.1,0.3,0.2,0.4c0.1,0.3,0.3,0.5,0.5,0.8c0.5,0.7,1,1.4,1.6,2c0.5,0.5,1.1,1,1.7,1.4c0.2,0.1,0.4,0.3,0.6,0.4
			c0.4,0.3,0.8,0.5,1.2,0.7c0.3,0.1,0.5,0.3,0.8,0.4c0.4,0.2,0.9,0.4,1.3,0.5c0.7,0.3,1.4,0.5,2.1,0.6c0.6,0.1,1.2,0.2,1.8,0.3
			c6.3,0.6,12.4-2,18.1-4.9c5.6-2.9,11.2-6.2,17.5-7.3c17.8-3,34.2,12.9,52.3,11.9c11.4-0.6,22.5-8.1,33.5-5.6
			c-7.3-4.4-14.8-8.4-22.7-11.5c-19-7.4-39.7-9.2-60-10.2c-17.7-0.8-24.2-3.6-40.7,2.9c-4.1,1.6-7.5,4.9-10.5,9
			c-0.1,0.5-0.2,0.9-0.3,1.4C725.5,933.5,725.4,934.4,725.5,935.3z"/>
		<path fill="#5F6362" d="M728.8,942.4c-0.6-0.6-1.2-1.3-1.6-2C727.7,941.1,728.2,941.8,728.8,942.4z"/>
		<path fill="#5F6362" d="M726.2,938.6c0,0,0-0.1,0-0.1C726.2,938.6,726.2,938.6,726.2,938.6z"/>
		<path fill="#5F6362" d="M725.5,935.3c0-0.9,0.1-1.8,0.2-2.6C725.5,933.5,725.4,934.4,725.5,935.3z"/>
		<path fill="#5F6362" d="M726.7,939.7c-0.1-0.1-0.1-0.3-0.2-0.4C726.6,939.4,726.7,939.5,726.7,939.7z"/>
		<path fill="#5F6362" d="M726.5,939.2c-0.1-0.1-0.1-0.2-0.2-0.4C726.4,938.9,726.4,939,726.5,939.2z"/>
		<path fill="#515655" d="M719.3,966.3c8.7,1.1,17.1,4.1,25.8,5c12,1.2,24.4-1.4,36.1,1.7c7,1.9,13.3,5.7,20.3,7.3
			c8.6,2,17.6,0.7,26.1-1.6c8.5-2.3,16.8-5.6,25.4-7.4c3.4-0.7,6.9-1.3,10.3-2.2c7.6-2.1,14.6-6.4,19.9-12.1c-0.5-0.5-1-1-1.5-1.4
			c-2.2,1.9-4.1,4.2-6.3,6.2c-3.8,3.4-8.5,5.7-13.5,6.6c-5.9,1-12,0.1-17.7,1.8c-3.8,1.1-7.1,3.4-10.7,5
			c-14.4,6.6-31.3,3.1-46.1-2.3c-4-1.5-8-3.1-12.2-3.5c-5.4-0.5-10.8,1-16.3,1.3c-14.1,0.8-27.6-6.4-41.7-7.3c-3-0.2-6.6-0.3-8.8-2
			c-0.3,0.5-0.6,1.1-0.9,1.6c0.4,0.3,0.9,0.7,1.4,0.9C712,965.7,715.7,965.9,719.3,966.3z"/>
		<path fill="#515655" d="M736,956.5c4.9,0,9.8-0.9,14.8-0.7c10.9,0.4,21.2,6.2,32,5.6c8.6-0.5,17-4.9,25.4-3.4
			c2.8,0.5,5.5,1.6,8.3,2.3c2.7,0.6,5.6,0.7,8.4,0.8c4.6,0.2,9.3,0.3,13.7-0.8c2.9-0.7,5.7-2,8.4-3.3c5.7-2.7,11.5-5.4,17.2-8
			c1.3-0.6,2.6-1.3,3.3-2.5c0.1-0.1,0.1-0.2,0.1-0.3c-0.7-0.4-1.3-0.8-2-1.3c-1.3,2.7-3.8,4.7-6.7,5.5c-2.4,0.6-4.9,0.4-7.3,1.1
			c-1.9,0.6-3.5,1.9-5.2,3c-8.2,5.3-18.5,7.2-28.1,5c-5.6-1.3-11.1-3.9-16.9-3.8c-4.1,0.1-8,1.6-12,2.5c-6.2,1.4-12.7,1.3-18.9-0.4
			c-5.3-1.4-10.3-3.9-15.7-4.9c-7.2-1.3-14.6,0.4-21.9,0.5c-6.1,0.1-12.7-1.3-17-5.3c-0.4,0.8-0.8,1.5-1.2,2.2
			c0.1,0.1,0.2,0.2,0.4,0.2C721.6,954.4,728.8,956.5,736,956.5z"/>
		<path fill="#5F6362" d="M734.9,940.9c0.7,0.6,1.4,1.1,2.3,1.3c0.9,0.2,1.9,0.1,2.5-0.5c1-0.9,0.8-2.6-0.2-3.5
			c-1-0.9-2.5-1-3.7-0.6c-1,0.3-1.9,1.2-1.7,2.1C734.1,940.3,734.5,940.6,734.9,940.9z"/>
		<path fill="#5F6362" d="M813.6,936.4c0.3,0.3,0.7,0.5,1.1,0.7c0.4,0.1,0.9,0.1,1.2-0.2c0.5-0.4,0.4-1.3-0.1-1.7
			c-0.5-0.4-1.2-0.5-1.8-0.3c-0.5,0.2-0.9,0.6-0.8,1C813.3,936.1,813.5,936.3,813.6,936.4z"/>
		<path fill="#5F6362" d="M754.5,926.8c0.3,0.3,0.7,0.5,1.1,0.7c0.4,0.1,0.9,0.1,1.2-0.2c0.5-0.4,0.4-1.3-0.1-1.7
			c-0.5-0.4-1.2-0.5-1.8-0.3c-0.5,0.2-0.9,0.6-0.8,1C754.2,926.4,754.3,926.6,754.5,926.8z"/>
		<path fill="#797C7C" d="M817,925.3c-1.4-0.2-2.9-0.4-4.3-0.2c-1.2,0.2-2.5,1-2.3,2.2c0.1,0.9,1,1.4,1.8,1.8c3.1,1.3,6.5,2,9.2,4
			c2.3,1.7,3.9,4.3,6.3,6c2.5,1.7,5.6,2.1,8.6,1.8c3-0.3,5.8-1.2,8.6-2.2c1.5-0.5,3.1-1,4.6-1.5C839.5,931.3,828.4,927.2,817,925.3z
			"/>
		<path fill="#797C7C" d="M797.2,926.6c-2.2-0.8-4.6-0.8-6.8-1.5c-2.6-0.8-5-2.6-7.7-2.9c-2.6-0.3-5.1,0.7-7.4,1.7
			c-2.6,1.1-5.2,2.1-7.6,3.6c-3.7,2.1-7,5-9.5,8.5c2.9,0.5,5.7-0.8,8.5-1.8c8.3-2.9,17.8-2.8,25.8,0.9c3.5,1.6,7,4,10.9,3.8
			c0.9-0.1,1.8-0.3,2.4-0.9c1.5-1.6-0.1-4.2-1.6-5.9C802.1,929.8,800,927.6,797.2,926.6z"/>
		<path fill="#797C7C" d="M744.4,935.3c1.2,0.5,2.3,1.3,3.5,1.7c1.3,0.3,2.9,0,3.4-1.1c0.7-1.6-0.8-3.2-1.5-4.8
			c-0.9-2-0.4-4.5,1.1-6.2c1.4-1.7,3.6-2.6,5.9-2.7c0.5,0,1,0,1.5-0.2c0.5-0.2,0.8-0.7,0.7-1.2c-3.2-2.6-7.9-1.6-11.9-0.5
			c-1.9,0.5-3.7,1.1-5.6,1.6c-4.7,1.3-10,3.1-12,7.5c-0.5,1.1-0.8,2.4-0.1,3.4c0.4,0.6,1.1,1.1,1.8,1.3
			C735.2,935.8,740.2,933.6,744.4,935.3z"/>
		<path fill="#5F6362" d="M739.9,928.3c0.4,0.1,0.9,0.2,1.3,0.1c0.4-0.1,0.8-0.4,1-0.8c0.2-0.6-0.3-1.3-0.9-1.5
			c-0.6-0.2-1.3,0.1-1.8,0.6c-0.3,0.3-0.6,0.9-0.2,1.3C739.4,928.2,739.7,928.3,739.9,928.3z"/>
		<path fill="#5F6362" d="M786.3,923.7c0.4,0.2,0.7,0.5,1.2,0.5c0.4,0.1,0.9,0,1.2-0.4c0.4-0.5,0.2-1.3-0.3-1.7
			c-0.5-0.4-1.3-0.4-1.9-0.1c-0.4,0.2-0.9,0.7-0.7,1.1C785.9,923.5,786.1,923.6,786.3,923.7z"/>
		<path fill="#5F6362" d="M778.3,930.2c0.4,0.2,0.7,0.5,1.2,0.5c0.4,0.1,0.9,0,1.2-0.4c0.4-0.5,0.2-1.3-0.3-1.7
			c-0.5-0.4-1.3-0.4-1.9-0.1c-0.4,0.2-0.9,0.7-0.7,1.1C778,929.9,778.2,930.1,778.3,930.2z"/>
		<path fill="#5F6362" d="M757.5,937.2c0.4,0.2,0.7,0.5,1.2,0.5c0.4,0.1,0.9,0,1.2-0.4c0.4-0.5,0.2-1.3-0.3-1.7
			c-0.5-0.4-1.3-0.4-1.9-0.1c-0.4,0.2-0.9,0.7-0.7,1.1C757.1,936.9,757.3,937,757.5,937.2z"/>
		<path fill="#5F6362" d="M824.5,932c0.4,0.1,0.9,0.2,1.3,0.2c0.4-0.1,0.9-0.3,1-0.7c0.3-0.6-0.2-1.3-0.8-1.5s-1.3,0-1.8,0.5
			c-0.4,0.3-0.6,0.9-0.3,1.3C824.1,931.8,824.3,931.9,824.5,932z"/>
		<path fill="#5F6362" d="M835.1,942.6c0.8,0.2,1.6,0.4,2.4,0.3s1.6-0.6,1.9-1.3c0.5-1.1-0.3-2.5-1.4-2.8c-1.1-0.4-2.4,0-3.3,0.8
			c-0.7,0.6-1.2,1.7-0.6,2.4C834.3,942.3,834.7,942.5,835.1,942.6z"/>
		<path fill="#6C706F" d="M803.2,934.2c0.7,0.1,1.4,0.3,2.1,0.4c0.7,0.1,1.5,0.2,2-0.2c0.7-0.5,0.6-1.8,0-2.5
			c-0.6-0.7-1.5-1-2.4-1.3c-0.9-0.3-1.9-0.6-2.8-0.3c-0.9,0.2-1.8,1.1-1.6,2.1C800.7,933.6,802.1,934,803.2,934.2z"/>
		<path fill="#6C706F" d="M787.3,934.5c0.9,0.3,1.8,0.7,2.7,1c0.9,0.3,1.9,0.6,2.7,0.2c1.1-0.5,1.2-2.1,0.6-3.2
			c-0.6-1-1.8-1.7-2.8-2.2c-1.1-0.6-2.4-1.1-3.6-1.1c-1.3,0.1-2.6,1.1-2.6,2.4C784.3,933.1,785.9,934,787.3,934.5z"/>
		<path fill="#6C706F" d="M742.1,936.8c0.9-0.1,1.9-0.2,2.8-0.2c0.9-0.1,2-0.2,2.5-1c0.7-1,0.2-2.5-0.8-3.1c-1-0.7-2.3-0.7-3.5-0.8
			c-1.3,0-2.6,0-3.7,0.6c-1.1,0.6-1.9,2.1-1.3,3.2C738.8,936.8,740.6,936.9,742.1,936.8z"/>
		<path fill="#6C706F" d="M836.3,936.1c0.9,0.1,1.9,0.2,2.8,0.3c0.9,0.1,2,0.2,2.7-0.4c0.9-0.8,0.7-2.4-0.2-3.2
			c-0.9-0.9-2.1-1.2-3.3-1.4c-1.2-0.3-2.6-0.5-3.8-0.1c-1.2,0.4-2.2,1.7-1.9,2.9C833,935.5,834.8,935.9,836.3,936.1z"/>
		<path fill="#575B5A" d="M724.1,944c-0.7-0.4-1.5-0.8-2.3-0.6c-0.8,0.2-1.4,1.3-0.8,1.9c0.3,0.2,0.6,0.4,0.9,0.6
			c0.6,0.4,1.2,0.8,2,0.9c0.7,0,1.5-0.4,1.6-1.2C725.4,944.9,724.7,944.4,724.1,944z"/>
		<path fill="#575B5A" d="M766.5,946.4c-0.8-0.1-1.7-0.1-2.4,0.5c-0.6,0.5-0.7,1.7,0.1,2c0.4,0.1,0.7,0.1,1.1,0.2
			c0.7,0.1,1.5,0.2,2.2,0c0.7-0.3,1.2-1,0.9-1.7C768.1,946.6,767.2,946.5,766.5,946.4z"/>
		<path fill="#575B5A" d="M775.9,937.7c-0.4-0.4-1.2-0.5-1.6,0c-0.4,0.4-0.5,1.2-0.1,1.6c0.1,0.1,0.3,0.2,0.4,0.3
			c0.7,0.4,1.7,0.3,2.2-0.4s-0.1-1.8-0.9-1.7"/>
		<path fill="#575B5A" d="M787.1,952.8c-0.4-0.4-1.2-0.5-1.6,0c-0.4,0.4-0.5,1.2-0.1,1.6c0.1,0.1,0.3,0.2,0.4,0.3
			c0.7,0.4,1.7,0.3,2.2-0.4c0.4-0.7-0.1-1.8-0.9-1.7"/>
		<path fill="#575B5A" d="M756.2,948.4c-0.4-0.4-1.2-0.5-1.6,0c-0.4,0.4-0.5,1.2-0.1,1.6c0.1,0.1,0.3,0.2,0.4,0.3
			c0.7,0.4,1.7,0.3,2.2-0.4c0.4-0.7-0.1-1.8-0.9-1.7"/>
		<path fill="#575B5A" d="M756.4,960.6c-0.4-0.4-1.2-0.5-1.6,0c-0.4,0.4-0.5,1.2-0.1,1.6c0.1,0.1,0.3,0.2,0.4,0.3
			c0.7,0.4,1.7,0.3,2.2-0.4c0.4-0.7-0.1-1.8-0.9-1.7"/>
		<path fill="#575B5A" d="M721.3,958.9c-0.4-0.4-1.2-0.5-1.6,0c-0.4,0.4-0.5,1.2-0.1,1.6c0.1,0.1,0.3,0.2,0.4,0.3
			c0.7,0.4,1.7,0.3,2.2-0.4c0.4-0.7-0.1-1.8-0.9-1.7"/>
		<path fill="#575B5A" d="M746,965.4c-0.3-0.4-1-0.4-1.3,0c-0.4,0.3-0.4,1,0,1.3c0.1,0.1,0.2,0.2,0.4,0.3c0.6,0.3,1.4,0.2,1.8-0.3
			c0.4-0.6-0.1-1.5-0.7-1.4"/>
		<path fill="#575B5A" d="M741,958.5c-0.3-0.4-1-0.4-1.3,0c-0.4,0.3-0.4,1,0,1.3c0.1,0.1,0.2,0.2,0.4,0.3c0.6,0.3,1.4,0.2,1.8-0.3
			c0.4-0.6-0.1-1.5-0.7-1.4"/>
		<path fill="#575B5A" d="M748.9,948.3c-0.3-0.4-1-0.4-1.3,0c-0.4,0.3-0.4,1,0,1.3c0.1,0.1,0.2,0.2,0.4,0.3c0.6,0.3,1.4,0.2,1.8-0.3
			c0.4-0.6-0.1-1.5-0.7-1.4"/>
		<path fill="#575B5A" d="M772,953.6c-0.2-0.2-0.5-0.2-0.7,0c-0.2,0.2-0.2,0.5,0,0.7c0.1,0.1,0.1,0.1,0.2,0.1c0.3,0.2,0.8,0.1,1-0.2
			C772.6,954,772.4,953.4,772,953.6"/>
		<path fill="#575B5A" d="M768.6,939.8c-0.2-0.2-0.5-0.2-0.7,0c-0.2,0.2-0.2,0.5,0,0.7c0.1,0.1,0.1,0.1,0.2,0.1
			c0.3,0.2,0.8,0.1,1-0.2C769.2,940.2,769,939.6,768.6,939.8"/>
		<path fill="#575B5A" d="M804.9,947c-0.2-0.2-0.5-0.2-0.7,0c-0.2,0.2-0.2,0.5,0,0.7c0.1,0.1,0.1,0.1,0.2,0.1c0.3,0.2,0.8,0.1,1-0.2
			C805.5,947.4,805.2,946.8,804.9,947"/>
		<path fill="#575B5A" d="M791,946.3c-0.3-0.3-0.9-0.3-1.2,0c-0.3,0.3-0.3,0.9,0,1.2c0.1,0.1,0.2,0.2,0.3,0.2
			c0.5,0.3,1.2,0.2,1.6-0.3c0.3-0.5-0.1-1.3-0.7-1.2"/>
		<path fill="#575B5A" d="M800.6,952.6c-0.3-0.3-0.9-0.3-1.2,0c-0.3,0.3-0.3,0.9,0,1.2c0.1,0.1,0.2,0.2,0.3,0.2
			c0.5,0.3,1.2,0.2,1.6-0.3c0.3-0.5-0.1-1.3-0.7-1.2"/>
		<path fill="#575B5A" d="M797.6,944.1c-0.3-0.3-0.9-0.3-1.2,0c-0.3,0.3-0.3,0.9,0,1.2c0.1,0.1,0.2,0.2,0.3,0.2
			c0.5,0.3,1.2,0.2,1.6-0.3s-0.1-1.3-0.7-1.2"/>
		<path fill="#575B5A" d="M827,952.2c-0.3-0.3-0.9-0.3-1.2,0c-0.3,0.3-0.3,0.9,0,1.2c0.1,0.1,0.2,0.2,0.3,0.2
			c0.5,0.3,1.2,0.2,1.6-0.3s-0.1-1.3-0.7-1.2"/>
		<path fill="#575B5A" d="M781.6,947.4c-0.3-0.3-0.9-0.3-1.2,0c-0.3,0.3-0.3,0.9,0,1.2c0.1,0.1,0.2,0.2,0.3,0.2
			c0.5,0.3,1.2,0.2,1.6-0.3c0.3-0.5-0.1-1.3-0.7-1.2"/>
		<path fill="#575B5A" d="M727.5,949.9c-0.3-0.3-0.9-0.3-1.2,0c-0.3,0.3-0.3,0.9,0,1.2c0.1,0.1,0.2,0.2,0.3,0.2
			c0.5,0.3,1.2,0.2,1.6-0.3c0.3-0.5-0.1-1.3-0.7-1.2"/>
		<path fill="#575B5A" d="M715.9,955.3c-0.3-0.3-0.9-0.3-1.2,0c-0.3,0.3-0.3,0.9,0,1.2c0.1,0.1,0.2,0.2,0.3,0.2
			c0.5,0.3,1.2,0.2,1.6-0.3c0.3-0.5-0.1-1.3-0.7-1.2"/>
		<path fill="#575B5A" d="M845,944.6c-0.3-0.3-0.9-0.3-1.2,0c-0.3,0.3-0.3,0.9,0,1.2c0.1,0.1,0.2,0.2,0.3,0.2
			c0.5,0.3,1.2,0.2,1.6-0.3c0.3-0.5-0.1-1.3-0.7-1.2"/>
		<path fill="#575B5A" d="M857.3,947.9c-0.2-0.2-0.4-0.2-0.6,0c-0.2,0.1-0.2,0.4,0,0.6c0,0,0.1,0.1,0.2,0.1c0.3,0.1,0.6,0.1,0.8-0.1
			C857.8,948.2,857.6,947.8,857.3,947.9"/>
		<path fill="#575B5A" d="M841.5,953.8c-0.2-0.2-0.4-0.2-0.6,0c-0.2,0.1-0.2,0.4,0,0.6c0,0,0.1,0.1,0.2,0.1c0.3,0.1,0.6,0.1,0.8-0.1
			C842,954.1,841.8,953.7,841.5,953.8"/>
		<path fill="#575B5A" d="M839.9,948.4c-0.2-0.2-0.4-0.2-0.6,0c-0.2,0.1-0.2,0.4,0,0.6c0,0,0.1,0.1,0.2,0.1c0.3,0.1,0.6,0.1,0.8-0.1
			C840.4,948.7,840.2,948.3,839.9,948.4"/>
		<path fill="#575B5A" d="M849.5,948.6c-0.2-0.2-0.4-0.2-0.6,0c-0.2,0.1-0.2,0.4,0,0.6c0,0,0.1,0.1,0.2,0.1c0.3,0.1,0.6,0.1,0.8-0.1
			C850,948.9,849.8,948.5,849.5,948.6"/>
		<path fill="#575B5A" d="M852.5,943.4c-0.2-0.2-0.4-0.2-0.6,0c-0.2,0.1-0.2,0.4,0,0.6c0,0,0.1,0.1,0.2,0.1c0.3,0.1,0.6,0.1,0.8-0.1
			C852.9,943.7,852.7,943.3,852.5,943.4"/>
		<path fill="#575B5A" d="M835.6,953c-0.2-0.2-0.6-0.2-0.9,0c-0.2,0.2-0.2,0.6,0,0.9c0.1,0.1,0.1,0.1,0.2,0.2
			c0.4,0.2,0.9,0.1,1.2-0.2C836.4,953.4,836.1,952.8,835.6,953"/>
		<path fill="#575B5A" d="M815.2,969.2c-0.2-0.2-0.6-0.2-0.9,0c-0.2,0.2-0.2,0.6,0,0.9c0.1,0.1,0.1,0.1,0.2,0.2
			c0.4,0.2,0.9,0.1,1.2-0.2C815.9,969.7,815.6,969.1,815.2,969.2"/>
		<path fill="#575B5A" d="M803.5,970.6c-0.2-0.2-0.6-0.2-0.9,0c-0.2,0.2-0.2,0.6,0,0.9c0.1,0.1,0.1,0.1,0.2,0.2
			c0.4,0.2,0.9,0.1,1.2-0.2C804.3,971,804,970.4,803.5,970.6"/>
		<path fill="#575B5A" d="M801.4,985.4c-0.2-0.2-0.6-0.2-0.9,0c-0.2,0.2-0.2,0.6,0,0.9c0.1,0.1,0.1,0.1,0.2,0.2
			c0.4,0.2,0.9,0.1,1.2-0.2C802.2,985.8,801.9,985.2,801.4,985.4"/>
		<path fill="#575B5A" d="M736.6,976.7c-0.2-0.2-0.6-0.2-0.9,0c-0.2,0.2-0.2,0.6,0,0.9c0.1,0.1,0.1,0.1,0.2,0.2
			c0.4,0.2,0.9,0.1,1.2-0.2C737.3,977.1,737,976.5,736.6,976.7"/>
		<path fill="#575B5A" d="M716.8,970.4c-0.2-0.2-0.6-0.2-0.9,0c-0.2,0.2-0.2,0.6,0,0.9c0.1,0.1,0.1,0.1,0.2,0.2
			c0.4,0.2,0.9,0.1,1.2-0.2C717.5,970.8,717.2,970.2,716.8,970.4"/>
		<path fill="#575B5A" d="M714.6,975.7c-0.2-0.2-0.6-0.2-0.9,0s-0.2,0.6,0,0.9c0.1,0.1,0.1,0.1,0.2,0.2c0.4,0.2,0.9,0.1,1.2-0.2
			C715.4,976.1,715.1,975.5,714.6,975.7"/>
		<path fill="#575B5A" d="M744.4,973.9c-0.2-0.2-0.6-0.2-0.9,0c-0.2,0.2-0.2,0.6,0,0.9c0.1,0.1,0.1,0.1,0.2,0.2
			c0.4,0.2,0.9,0.1,1.2-0.2C745.2,974.4,744.9,973.8,744.4,973.9"/>
		<path fill="#575B5A" d="M757.7,977.9c-0.2-0.2-0.6-0.2-0.9,0c-0.2,0.2-0.2,0.6,0,0.9c0.1,0.1,0.1,0.1,0.2,0.2
			c0.4,0.2,0.9,0.1,1.2-0.2C758.5,978.4,758.2,977.8,757.7,977.9"/>
		<path fill="#575B5A" d="M729.3,977.1c-0.6-0.6-1.6-0.6-2.2-0.1c-0.6,0.6-0.6,1.6-0.1,2.2c0.2,0.2,0.4,0.3,0.6,0.4
			c1,0.5,2.3,0.4,2.9-0.5c0.6-0.9-0.2-2.4-1.2-2.3"/>
		<path fill="#525655" d="M715.8,982.7c5.5,0.7,10.9-1,16.4-1c7.9,0,15.4,3.4,23,5.6c22.2,6.4,45.9,2.7,68.7-1
			c15.4-2.5,30.7-5,46.1-7.5c7.5-1.2,16.6-4.1,17.6-11.5c0.3-2.2-0.2-4.2-1.2-6.1c-0.2,0.5-0.4,1-0.7,1.5c-3,6.1-9.4,10-16,11.8
			c-6.6,1.8-13.5,2-20.3,2.7c-13.2,1.5-26.1,5.3-39.3,7.3c-18.8,2.9-38.1,2-56.6-2.5c-9.6-2.3-19.4-5.7-29.2-4.4
			c-5.1,0.7-10.7,2.5-15-0.3c-2.5-1.6-3.8-4.3-4.5-7.3C703.8,976.5,706.9,981.6,715.8,982.7z"/>
	</g>
	<path opacity="0.32" clip-path="url(#SVGID_2_)" fill="#00302C" d="M33.6,900.8c11.9-18.5,40.6-30.7,62.3-23.3
		c9.5,3.2,15.4,15.1,23.9,18.1c17.1,6.1,17.8-2.1,31.5-3.8c22.4-2.7,42.9,6.6,68.3,3.1c28.1-3.9,51.1-4.1,80.6-2.6
		c-0.2,1.3-0.2,6.9,0,8.1c-25.8,1.3-48.6,7-70.8,10.2c-25.3,3.6-45.8-9.2-70.5-4.3c-11,2.2-20.1,8.6-32.3,6.6
		c-13.5-2.3-17.8-13-29.9-17.4c-23.3-8.4-52.7,12.1-69.5,2.4C28.6,892,31.6,903.9,33.6,900.8z"/>
	<g clip-path="url(#SVGID_2_)">
		<path fill="#094A46" d="M-50.4,0.7C-70.7,75.2,12.4,84.3,43.5,132c17.6,27,8.8,143.8,43.7,144.2c11.6-41.1-2.3-87.8,10.2-128.5
			c17.6-57.1,44.4-39.1,90-59.3c17.4-7.7,28.4-15.9,47.3-21.8c17-5.4,38.8-10.1,53.9-17.9c43.6-22.6,46.9-62.2,44.6-107.5
			c-36.5-3-71.5,8.5-107.4,13.8c-26.3,3.9-55.7,11-82,4.5c-20-4.9-35.1-13.3-56.2-15.8c-29.2-3.4-77.1-11.2-105,0
			C-51.5-42.7-19.3-11.7-50.4,0.7z"/>
		<path fill="#094A46" d="M76.4,201c-4.4-22.2-16.6-44.6-15.7-68.3c0.4-11.4,8.7-18.6,9-30C69.9,91,63,82,61.4,72
			c-4.7-28.9-1.7-38.8,26.3-44.3c46.8-9.3,98.7,10,147,2.8c34.6-5.1,67.7-19.5,96.6-39.4c2.9-15.3,2.9-32.2,2-50
			c-36.5-3-71.5,8.5-107.4,13.8c-26.3,3.9-55.7,11-82,4.5c-20-4.9-35.1-13.3-56.2-15.8c-29.2-3.4-77.1-11.2-105,0
			c-34.1,13.7-1.9,44.6-33,57C-70.7,75.2,12.4,84.3,43.5,132c17.6,27,8.8,143.8,43.7,144.2c0.5-1.8,1-3.6,1.4-5.4
			c-0.3-1-0.7-2.1-1-3.2C81.3,247,80.5,221.6,76.4,201z"/>
		<path fill="#0F5952" d="M97.4,147.8c17.6-57.1,44.4-39.1,90-59.3c17.4-7.7,28.4-15.9,47.3-21.8c17-5.4,38.8-10.1,53.9-17.9
			c26.5-13.7,38.1-33.7,42.6-57.5c-28.9,19.9-62,34.3-96.6,39.4c-48.3,7.2-100.2-12.1-147-2.8c-28,5.5-31,15.4-26.3,44.3
			c1.6,10,8.6,19,8.2,30.7c-0.3,11.4-8.5,18.6-9,30C59.7,156.3,72,178.8,76.4,201c4.1,20.6,5,46,11.2,66.7c0.3,1.1,0.7,2.1,1,3.2
			C97.6,231,85.4,186.7,97.4,147.8z"/>
		<path fill="#146359" d="M135.6,57.7c-29.9-14-58.5,75.3-56.6,98.5c23-0.8,9.7-44.3,27.2-58.9c14.5-12,49-9.9,68.3-15.7
			c17.9-5.4,59.8-16.4,24-30C180.2,44.7,154.4,55,135.6,57.7z"/>
	</g>
	<path clip-path="url(#SVGID_2_)" fill="#0F5952" d="M636.7,36.7c-33.3,6.1-58.7,28.3-96,30c-33.1,1.5-64.7-0.8-95.6,6.4
		c-2,39.2,11.8,51,24.3,82.8c9.6,24.4,15.4,66.4,14.7,93.4c27.8-7.8-1.7-74.8,5.6-98.6c10.7-35.1,48.7-10.4,74.3-36.6
		c13.8-14.1,8.2-25,30.7-34.7c17.4-7.6,34.2-4.8,51.1-9.6C682.8,59.3,682.3,28.4,636.7,36.7z"/>
	<path clip-path="url(#SVGID_2_)" fill="#146359" d="M537.7,81.7c-13.4-0.4-46.5-1.5-57,6.7c-14.4,11.2-13.1,37.8,3.1,47.7
		c13.6-12.6,11.8-25.5,29.9-33.5c15.7-7,36.3-3,54-11.8c14.4-7.1,68.1-37.2,68.5-47.6c-15.6-2-37.4,12.3-52.9,18.3
		C565,68.6,556.4,82.3,537.7,81.7z"/>
	<path clip-path="url(#SVGID_2_)" fill="#08443E" d="M996.7-38.3c-7,53.6,36.7,114.6,81.7,137.3c48.2,24.2,98.7,32.8,97.5,90.8
		c-1,51.4,26,91.2,27.8,144c0.8,23.7-1.9,51.9,12.8,71.2c21.4,28.2,37.4,13.3,38.4-17.2c0.7-23.3-1.2-52.5-6.8-75
		c-5.3-21.1-28.1-43.3-23.4-66.1c3.8-18.7,26.9-33,35.3-50.9c12.2-25.8,10.2-42,42.6-48.2c50.9-9.9,112.3,25,146.5-32.7
		c21.2-35.7,50.4-163.2,9.1-185.5c-27.8-15-106.7-1.5-137.8,2.2c-47.2,5.7-92.1,6.6-139.7,8.9c-68.6,3.4-144.1,0.2-208,24.2"/>
	<path clip-path="url(#SVGID_2_)" fill="#094A46" d="M1095.7,0c-38.6,0-110.6,22.2-48.7,64.4c32.7,22.3,81,37.1,117.7,53.9
		c55.5,25.5,23.4,69.7,33.2,119.2c4.3,21.8,9.6,45.6,14.2,66.8c3.3,15.6,4.5,53.5,14.9,65.5c6.6,7.7,10.4,10.8,21.4,8.4
		c5-44.8-47.7-86.8-44.5-128.6c2.1-27.9,22.4-29.5,38.4-48.8c16.6-20,8.6-45.1,22.3-64.5c29.9-42.6,101.1,11.8,135.1-21.5
		c32.7-32,19.4-108.7-21.8-120.1c-99.3-27.4-206,12.8-303,5.9"/>
	<path clip-path="url(#SVGID_2_)" fill="#0F5952" d="M1179.7,33.7c-21.1,0-145.4-21.9-144.2,15.1c0.5,17.2,100.2,40.3,117.9,50.3
		c21.6,12.1,48.1,28.1,50.4,54.6c1.2,14.2-20.1,60.2,12.7,33.9c19.4-15.6,6.3-50.3,14.3-69.7c10.4-25,43.9-23.5,53.2-48.2
		C1302.1,21.6,1208,33.7,1179.7,33.7z"/>
	<path clip-path="url(#SVGID_2_)" fill="#146359" d="M1197.7,54.7l-35.5-4.8c-21.9-5-87.4-5.1-96.8,4.9
		c15.5,24.3,54.5,15.5,78.4,23.1c26.2,8.4,41.6,40.7,62.4,45.4C1217.3,96.4,1230.8,45.7,1197.7,54.7z"/>
	<path clip-path="url(#SVGID_2_)" fill="#0F5952" d="M1389.8,24.7c-38.4-18.3-39.8,19.8-54.7,38.4c-14.5,18.1-51.5,20.4-52.8,48.1
		c21.9,0.9,36.3-5.5,56.5-8.5c19.2-2.8,39.1,11.8,53.9,9.2C1429.7,105.5,1426.1,41.9,1389.8,24.7z"/>
	<path clip-path="url(#SVGID_2_)" fill="#184C45" d="M195.4,535.4c-15.9,3.1-18.6,15.1-21.9,28.7c-2.7,10.9-10.8,25.1-8.2,36.8
		c19.6,10.8,26.4-24.5,34.7-35.6c5.7-7.6,16.5-12.7,14-24.9C211,526.2,204.9,525.2,195.4,535.4z"/>
	<path clip-path="url(#SVGID_2_)" fill="#184C45" d="M126.6,636.7c-32.1,10.7-66.5,10.1-89.3,42.1c-18.4,25.9-19.9,99.4,23.3,60.7
		c10.9-9.7,12.9-28.5,24.7-39c16.1-14.3,31.2-9.6,50.3-15.7C180,670.7,176.6,620.1,126.6,636.7z"/>
	<path clip-path="url(#SVGID_2_)" fill="#184C45" d="M1182.7,492.7c-30.8-0.7-62.3,34.8-56.6,65.6c19.2,4.4,23.3-13.3,36.3-22.8
		c13.1-9.6,25.7-8.5,38.2-15.8C1239.5,496.8,1217.3,466.7,1182.7,492.7z"/>
	<path clip-path="url(#SVGID_2_)" fill="#184C45" d="M1014.7,621.7c-31.1-2.6-72.5,44.1-65.6,74.6c28.3,6.8,38-26.3,60.3-37.8
		c22-11.3,48.2-6,64.8-27C1058.7,619.4,1034.3,623.4,1014.7,621.7z"/>
	<g clip-path="url(#SVGID_2_)">
		<path fill="#575B5A" d="M996.7,800.1c8.6-9.8,17.1-19.6,25-29.9c12.4-16.1,34.2-22.4,55.2-25.2c35-4.7,57.4-5.2,88.9-15.1
			c38.2-12,49.8-7,82.1,12.1c14.9,8.8,15.5,14.6,33,19c15.9,4,33.9-1.8,48.9,3.1c24.2,8,50.3,25,28.1,49.9c-23.4,26.2-49.8,8.3-77,7
			c-32.8-1.6-72.5,11.9-104,8c-30.1-3.7-31.2,1.9-64,4c-23.7,1.5-58.1-10.9-84-11.1C1006.1,821.7,985.3,813.1,996.7,800.1z"/>
		<path fill="#575B5A" d="M1085.3,823.5c-20.4-2.8-35.9-15.8-55.1-19.9c-10.8-2.3-23-1.2-33.6-3.3c-11,12.9,9.6,21.4,32.4,21.6
			c25.9,0.2,60.3,12.7,84,11.1c32.8-2.1,33.9-7.7,64-4c2.2,0.3,4.5,0.5,6.8,0.6c-9.2-4.8-20.3-5.8-30.7-6.4
			C1130.3,821.6,1107.5,826.5,1085.3,823.5z"/>
		<path fill="#575B5A" d="M1319.7,814.1c-24.3-2.3-49.6-3-75-3c-24.7,0-52.4,3.1-76.2-1.8c-22.4-4.7-45.2-15.1-67.8-20.7
			c-10.1-2.5-18.6,2.6-28.5,3c-12.3,0.5-20.5-2.9-31.5-7.1c-4.8-1.8-13.8-6.5-20.6-12.1c-5.3,6.8-10.8,13.4-16.5,19.9
			c11.2,5.3,27.8,3.9,38.9,8c19.3,7.2,38.4,12.2,58.5,16.5c20.6,4.4,41.1-7,59.6-2.6c10,2.4,29.2,6.9,39.8,15.1
			c26.4-1.9,55.5-9.5,80.6-8.3c25.7,1.2,50.7,17.3,73.2-3.1C1339.9,817.1,1324.5,814.6,1319.7,814.1z"/>
		<path fill="#515655" d="M1101,816.8c-20-4.3-39.2-9.3-58.5-16.5c-11.1-4.1-27.7-2.7-38.9-8c-2.3,2.6-4.5,5.2-6.8,7.8
			c-0.1,0.1-0.1,0.1-0.2,0.2c10.6,2.1,22.8,1,33.6,3.3c19.2,4.1,34.7,17.1,55.1,19.9c22.2,3,45-1.9,67.8-0.3
			c10.3,0.7,21.5,1.6,30.7,6.4c5.4,0.3,11,0.1,16.6-0.3c-10.6-8.3-29.8-12.8-39.8-15.1C1142,809.8,1121.5,821.2,1101,816.8z"/>
		<path fill="#515655" d="M1301.7,805.1c-28.8-6-52.6,1.8-81,0c-12.4-0.8-23.4-4.7-36-6c-13-1.3-25.8-0.6-39-1.4
			c-24.7-1.5-41.9-16.3-66-15.1c-14.9,0.8-49.2,2.3-56.2-14.5c-0.6,0.7-1.1,1.3-1.7,2.1c-0.6,0.7-1.2,1.5-1.7,2.2
			c6.8,5.7,15.8,10.3,20.6,12.1c11,4.2,19.2,7.6,31.5,7.1c9.9-0.4,18.4-5.5,28.5-3c22.6,5.6,45.5,16,67.8,20.7
			c23.8,5,51.5,1.8,76.2,1.8c25.4,0,50.8,0.6,75,3c4.9,0.5,20.2,3,34.5,3.8c1.3-1.2,2.6-2.4,3.8-3.9c1.6-1.8,2.9-3.5,4-5.2
			C1341.7,809.3,1322.9,809.6,1301.7,805.1z"/>
		<path fill="#797C7C" d="M1069.1,764.6c24.1-0.5,44.6-19.5,70.5-13.5c23.1,5.4,35.9,29.4,61.5,33.1c26.9,3.8,41.1-11.4,65.9,0
			c23.7,10.8,51.5,14.6,76.5,7.5c7.2-2,13.2-5,17.9-8.7c-6.7-8.5-19.4-14.8-31.6-18.8c-15-5-33,0.9-48.9-3.1
			c-17.5-4.4-18.1-10.2-33-19c-32.3-19.1-43.9-24.1-82.1-12.1c-31.5,9.9-53.9,10.4-88.9,15.1c-9.5,1.3-19.1,3.2-27.9,6.5
			C1050.1,759.6,1060.5,764.8,1069.1,764.6z"/>
		<path fill="#838484" d="M1235.6,745.1c-10.1-9.3-24.4-18.8-39.1-16.6c-14.3,2.2-34.7,16.9-14.6,26.7c7.2,3.5,16.1,0.2,23.7,1.8
			c6.4,1.3,13.2,6.3,19.5,8.7c11.7,4.4,34.6,14.9,45.1,3.4C1262.9,757.6,1245.3,754.1,1235.6,745.1z"/>
		<path fill="#5F6362" d="M1320.2,781c-3.4-1.4-12.9-2.4-12.3,4C1312,786.5,1329,784.7,1320.2,781z"/>
		<path fill="#5F6362" d="M1073.6,754.1c-3.4-1.4-12.9-2.4-12.3,4C1065.5,759.6,1082.5,757.8,1073.6,754.1z"/>
		<path fill="#5F6362" d="M1210.4,769.5c-2.7-2.6-11.2-6.9-12.9-0.7C1200.8,771.7,1217.4,776.1,1210.4,769.5z"/>
		<path fill="#5F6362" d="M1192.4,735c-2.7-2.6-11.2-6.9-12.9-0.7C1182.8,737.2,1199.4,741.6,1192.4,735z"/>
		<path fill="#5F6362" d="M1163.9,751.5c-2.7-2.6-11.2-6.9-12.9-0.7C1154.3,753.7,1170.9,758.1,1163.9,751.5z"/>
		<path fill="#5F6362" d="M1276.7,771.7c-3.5-3.4-14.8-9.1-17.2-0.9C1264,774.6,1285.9,780.5,1276.7,771.7z"/>
		<ellipse fill="#5F6362" cx="1087.1" cy="751.9" rx="3" ry="2.1"/>
		<ellipse fill="#5F6362" cx="1166.6" cy="737.6" rx="3" ry="2.1"/>
		<ellipse fill="#5F6362" cx="1117.1" cy="746.1" rx="3" ry="2.1"/>
		<ellipse fill="#5F6362" cx="1199.6" cy="751.1" rx="3" ry="2.1"/>
		<ellipse fill="#5F6362" cx="1219.1" cy="737.6" rx="3" ry="2.1"/>
		<ellipse fill="#5F6362" cx="1318.1" cy="773.6" rx="3" ry="2.1"/>
		<ellipse fill="#5F6362" cx="1339.1" cy="779.6" rx="3" ry="2.1"/>
		<ellipse fill="#5F6362" cx="1294.1" cy="782.1" rx="3" ry="2.1"/>
		<ellipse fill="#5F6362" cx="1226.6" cy="776.1" rx="3" ry="2.1"/>
		<ellipse fill="#5F6362" cx="1180.1" cy="764.1" rx="3" ry="2.1"/>
		<ellipse fill="#484C4B" cx="1136.6" cy="771.6" rx="5.6" ry="3.9"/>
		<ellipse fill="#484C4B" cx="1155.8" cy="787.1" rx="4.6" ry="3.1"/>
		<ellipse fill="#484C4B" cx="1097.6" cy="772.1" rx="4.6" ry="3.1"/>
		<ellipse fill="#484C4B" cx="1060.1" cy="799.3" rx="4.6" ry="3.1"/>
		<ellipse fill="#484C4B" cx="1022.7" cy="811.1" rx="4.6" ry="3.1"/>
		<ellipse fill="#484C4B" cx="1244.6" cy="790.1" rx="4.6" ry="3.1"/>
		<ellipse fill="#484C4B" cx="1048.2" cy="770.6" rx="4.6" ry="3.1"/>
		<ellipse fill="#484C4B" cx="1024.2" cy="785.6" rx="4.6" ry="3.1"/>
		<ellipse fill="#484C4B" cx="1076.6" cy="798.2" rx="7.1" ry="4.9"/>
	</g>
	<g clip-path="url(#SVGID_2_)">
		<path fill="#5F6362" d="M1321.3,810.9c14.1,5.5,26.9,13.9,39.6,22.3c5.6,3.7,11.8,8.8,10.9,15.4c-1,7.5-10.2,10.3-17.6,11.5
			c-15.4,2.5-30.7,5-46.1,7.5c-19.9,3.2-40.6,6.5-60.3,2.9c-2.8-0.5-5.6-1.2-8.4-2c-2.7-1.3-5.5-2.2-8.2-2.8c-2.8-0.7-5.5-1-8.3-1.3
			C1210,862,1195,871,1184,862c-3-2.2-5.1-4.6-6.5-7.2C1172,822,1219,814,1242,801c8-4,19,1,29.4,0.3c3.4,0.2,6.8,0.5,10.2,0.8
			C1295.2,803.5,1308.6,805.9,1321.3,810.9z"/>
		<path fill="#5F6362" d="M1214.8,826.5c-0.2-0.1-0.4-0.3-0.6-0.4C1214.4,826.3,1214.6,826.4,1214.8,826.5z"/>
		<path fill="#5F6362" d="M1221.6,828.8c-1-0.1-1.9-0.3-2.8-0.6C1219.7,828.5,1220.6,828.7,1221.6,828.8z"/>
		<path fill="#5F6362" d="M1217.2,827.7c-0.3-0.1-0.7-0.3-1-0.4C1216.5,827.4,1216.9,827.6,1217.2,827.7z"/>
		<path fill="#5F6362" d="M1203.6,818.3"/>
		<path fill="#707574" d="M1213.6,817.5c-1.6,0.5-2.6,1.5-2.6,3.5c0,8,10,10,16,9c18-3,31-20,48.5-12c2.9,0.9,5.7,2.1,8.6,3.2
			c8.6,3.5,17.2,7.2,26.2,6.7c11.4-0.6,22.5-8.1,33.5-5.6c-7.3-4.4-14.8-8.4-22.7-11.5c-12.7-4.9-26.1-7.4-39.6-8.8
			c-3.4-0.3-6.8-0.6-10.2-0.8c-20.4-2.3-41.4-2.3-55.4,13.6C1215.2,815.8,1214.3,816.7,1213.6,817.5z"/>
		<path fill="#5F6362" d="M1212.6,824.7c-0.5-0.6-0.8-1.3-0.9-2C1211.9,823.4,1212.2,824.1,1212.6,824.7z"/>
		<path fill="#5F6362" d="M1203.3,821.3"/>
		<path fill="#5F6362" d="M1213.6,817.5c0.7-0.9,1.5-1.7,2.4-2.6C1215.1,815.8,1214.3,816.6,1213.6,817.5z"/>
		<path fill="#5F6362" d="M1211.7,821.9c0-0.1,0-0.3,0-0.4C1211.7,821.6,1211.7,821.8,1211.7,821.9z"/>
		<path fill="#5F6362" d="M1203.3,821.6"/>
		<path fill="#515655" d="M1189.4,849.4c18.6,3.6,38.6,3.6,57.9,3.4c3.1-0.1,6.1-0.1,9.1,0.1c3,0.2,6,0.6,8.9,1.4
			c7,1.9,13.3,5.7,20.3,7.3c8.6,2,17.6,0.7,26.1-1.6c8.5-2.3,16.8-5.6,25.4-7.4c3.4-0.7,6.9-1.3,10.3-2.2
			c7.6-2.1,14.6-6.4,19.9-12.1c-0.5-0.5-1-1-1.5-1.4c-2.2,1.9-4.1,4.2-6.3,6.2c-3.8,3.4-8.5,5.7-13.5,6.6c-5.9,1-12,0.1-17.7,1.8
			c-3.8,1.1-7.1,3.4-10.7,5c-14.4,6.6-31.3,3.1-46.1-2.3c-4-1.5-8-3.1-12.2-3.5c-2.7-0.3-5.4,0-8.1,0.3c-25.1,3-50.1-6-75.1-6
			c1,1,1,1,1.9,2.4C1181.2,849.1,1185,849.2,1189.4,849.4z"/>
		<path fill="#515655" d="M1215.6,838.6c14.4-3.6,29.4-0.6,43.4,3.6c2.6,0.5,5.3,0.7,8,0.6c8.6-0.5,17-4.9,25.4-3.4
			c2.8,0.5,5.5,1.6,8.3,2.3c2.7,0.6,5.6,0.7,8.4,0.8c4.6,0.2,9.3,0.3,13.7-0.8c2.9-0.7,5.7-2,8.4-3.3c5.7-2.7,11.5-5.4,17.2-8
			c1.3-0.6,2.6-1.3,3.3-2.5c0.1-0.1,0.1-0.2,0.1-0.3c-0.7-0.4-1.3-0.8-2-1.3c-1.3,2.7-3.8,4.7-6.7,5.5c-2.4,0.6-4.9,0.4-7.3,1.1
			c-1.9,0.6-3.5,1.9-5.2,3c-8.2,5.3-18.5,7.2-28.1,5c-5.6-1.3-11.1-3.9-16.9-3.8c-4.1,0.1-8,1.6-12,2.5c-3.1,0.7-6.3,1-9.5,0.9
			C1244,834,1225,834,1204,836c-7,0-12-7-19-3c6,5,14,7,21.7,5.3C1209.6,838.5,1212.6,838.6,1215.6,838.6z"/>
		<path fill="#5F6362" d="M1222.7,823.2c1.4,3.7,8,0.1,7.1-2.8c-1.7-3-5.2-0.3-7.6,1.7C1222.1,822.5,1222.4,822.9,1222.7,823.2z"/>
		<path fill="#5F6362" d="M1297.7,817.8c0.3,0.3,0.7,0.5,1.1,0.7c0.4,0.1,0.9,0.1,1.2-0.2c0.5-0.4,0.4-1.3-0.1-1.7
			c-0.5-0.4-1.2-0.5-1.8-0.3c-0.5,0.2-0.9,0.6-0.8,1C1297.4,817.5,1297.6,817.6,1297.7,817.8z"/>
		<path fill="#5F6362" d="M1244.2,809.1c0.5,0.1,1.1,1,1.8,1c0-2,0.5-6.1-2.1-1.5C1244,808.7,1244.1,808.9,1244.2,809.1z"/>
		<path fill="#797C7C" d="M1301.1,806.7c-1.4-0.2-2.9-0.4-4.3-0.2c-1.2,0.2-2.5,1-2.3,2.2c0.1,0.9,1,1.4,1.8,1.8
			c3.1,1.3,6.5,2,9.2,4c2.3,1.7,3.9,4.3,6.3,6c2.5,1.7,5.6,2.1,8.6,1.8c3-0.3,5.8-1.2,8.6-2.2c1.5-0.5,3.1-1,4.6-1.5
			C1323.6,812.6,1312.5,808.6,1301.1,806.7z"/>
		<path fill="#797C7C" d="M1281.3,807.9c-2.2-0.8-4.6-0.8-6.8-1.5C1264,800,1252,808,1246,818c10-4,21-6,30.5-1.7
			c3.5,1.6,7,4,10.9,3.8c0.9-0.1,1.8-0.3,2.4-0.9c1.5-1.6-0.1-4.2-1.6-5.9C1286.2,811.2,1284.1,809,1281.3,807.9z"/>
		<path fill="#797C7C" d="M1235.3,817.6c0.7,1.4,1.7,2.4,1.7,2.4c7-3,2-14,10-17c-10-4-24,3-25,14c2,0,5,0,7.2,0
			C1231.6,816.9,1233.7,816.8,1235.3,817.6z"/>
		<path fill="#5F6362" d="M1233.1,810.7c-0.1,0.3,10.9-0.7-0.5-0.3C1232.7,810.6,1232.9,810.7,1233.1,810.7z"/>
		<path fill="#5F6362" d="M1270.4,805.1c0.6-0.1,3.6,1.9,2.6-1.1c-1-2-3-1-3,0.6C1270,804.8,1270.2,804.9,1270.4,805.1z"/>
		<path fill="#5F6362" d="M1262.9,811.7c1.1,0.3,3.1,0.3,2.1-1.7c-1-1-2,0-2.5,1.2C1262.5,811.4,1262.7,811.5,1262.9,811.7z"/>
		<path fill="#5F6362" d="M1245.6,819.2c2.4,1.8,2.4-0.2,2.4-1.2c-1,0-2,1-2.7,0.7C1245.3,818.9,1245.5,819.1,1245.6,819.2z"/>
		<path fill="#5F6362" d="M1308.6,813.3c0.4,0.1,0.9,0.2,1.3,0.2c0.4-0.1,0.9-0.3,1-0.7c0.3-0.6-0.2-1.3-0.8-1.5
			c-0.6-0.2-1.3,0-1.8,0.5c-0.4,0.3-0.6,0.9-0.3,1.3C1308.2,813.2,1308.4,813.2,1308.6,813.3z"/>
		<path fill="#5F6362" d="M1319.2,823.9c0.8,0.2,1.6,0.4,2.4,0.3c0.8-0.1,1.6-0.6,1.9-1.3c0.5-1.1-0.3-2.5-1.4-2.8
			c-1.1-0.4-2.4,0-3.3,0.8c-0.7,0.6-1.2,1.7-0.6,2.4C1318.4,823.6,1318.8,823.8,1319.2,823.9z"/>
		<path fill="#6C706F" d="M1287.3,815.5c0.7,0.1,1.4,0.3,2.1,0.4c0.7,0.1,1.5,0.2,2-0.2c0.7-0.5,0.6-1.8,0-2.5
			c-0.6-0.7-1.5-1-2.4-1.3c-0.9-0.3-1.9-0.6-2.8-0.3c-0.9,0.2-1.8,1.1-1.6,2.1C1284.8,814.9,1286.2,815.3,1287.3,815.5z"/>
		<path fill="#6C706F" d="M1271.4,815.8c0.9,0.3,1.8,0.7,2.6,1c0.9,0.3,1.9,0.6,2.7,0.2c1.1-0.5,1.2-2.1,0.6-3.2s-1.8-1.7-2.8-2.2
			c-1.5,1.3-4.5-3.7-6.1,1.3C1268.4,814.5,1270,815.3,1271.4,815.8z"/>
		<path fill="#6C706F" d="M1232.8,819c1.8-2.3,5.3,2.6,4.8-3.2c-0.1-1.5-1.7-2.2-3.4-2s-3.8,1.4-4.9,4
			C1229.5,819.1,1231.4,819.2,1232.8,819z"/>
		<path fill="#6C706F" d="M1320.4,817.4c0.9,0.1,1.9,0.2,2.8,0.3c0.9,0.1,2,0.2,2.7-0.4c0.9-0.8,0.7-2.4-0.2-3.2
			c-0.9-0.9-2.1-1.2-3.3-1.4c-1.2-0.3-2.6-0.5-3.8-0.1c-1.2,0.4-2.2,1.7-1.9,2.9C1317.1,816.8,1318.9,817.3,1320.4,817.4z"/>
		<path fill="#575B5A" d="M1203.4,826.3c-2.5-1.4-5.9,0.4-6.2,1.4c0.2,3,5.1,0.1,7,0.2C1204.8,827.2,1204.1,826.6,1203.4,826.3z"/>
		<path fill="#575B5A" d="M1251.9,828c-1.4,0.3-2.9-0.6-2.4,2.3c1-1,3.1,4.8,4-1.4C1253.2,828.2,1252.5,828.1,1251.9,828z"/>
		<path fill="#575B5A" d="M1260.6,819.2c-1.6-1.2-2.6,0.8-1.6,1.8c2,1,3,0,1.6-2"/>
		<path fill="#575B5A" d="M1271.2,834.2c-0.4-0.4-1.2-0.5-1.6,0c-0.4,0.4-0.5,1.2-0.1,1.6c0.1,0.1,0.3,0.2,0.4,0.3
			c0.7,0.4,1.7,0.3,2.2-0.4s-0.1-1.8-0.9-1.7"/>
		<path fill="#575B5A" d="M1242.7,830.2c-0.7-0.2-1.7-0.2-1.7,1.8c1,0,2,0,1.8-1.9"/>
		<path fill="#575B5A" d="M1240.8,842.2c-1.6-1-2.7,0-2,1.9c0.9,0,1.9,0,2.8,0c0.1-1-0.8-1-0.8-2.1"/>
		<path fill="#575B5A" d="M1191,841.7c-2-0.9-3.2,0.1-2.3,2.2c1,1,2.1,0,3.3-1.1c0,0-1-1-1-1.3"/>
		<path fill="#575B5A" d="M1228.4,847.1c-1.4-1.2-2.6-0.3-1.9,1.8c1,0,2.1-1,3.1-0.9c0,0-0.8-1-1.2-1"/>
		<path fill="#575B5A" d="M1222.6,840.4c-1.6-0.4-3.6-1.4-2.6,1.6c1,1,4,1,2.6-1.7"/>
		<path fill="#575B5A" d="M1231.4,829.8"/>
		<path fill="#575B5A" d="M1256.4,834.9"/>
		<path fill="#575B5A" d="M1254.2,821.4"/>
		<path fill="#575B5A" d="M1289,828.3c-0.2-0.2-0.5-0.2-0.7,0c-0.2,0.2-0.2,0.5,0,0.7c0.1,0.1,0.1,0.1,0.2,0.1
			c0.3,0.2,0.8,0.1,1-0.2C1289.6,828.7,1289.3,828.2,1289,828.3"/>
		<path fill="#575B5A" d="M1275.1,827.6c-0.3-0.3-0.9-0.3-1.2,0c-0.3,0.3-0.3,0.9,0,1.2c0.1,0.1,0.2,0.2,0.3,0.2
			c0.5,0.3,1.2,0.2,1.6-0.3c0.3-0.5-0.1-1.3-0.7-1.2"/>
		<path fill="#575B5A" d="M1284.7,833.9c-0.3-0.3-0.9-0.3-1.2,0c-0.3,0.3-0.3,0.9,0,1.2c0.1,0.1,0.2,0.2,0.3,0.2
			c0.5,0.3,1.2,0.2,1.6-0.3c0.3-0.5-0.1-1.3-0.7-1.2"/>
		<path fill="#575B5A" d="M1281.7,825.5c-0.3-0.3-0.9-0.3-1.2,0c-0.3,0.3-0.3,0.9,0,1.2c0.1,0.1,0.2,0.2,0.3,0.2
			c0.5,0.3,1.2,0.2,1.6-0.3c0.3-0.5-0.1-1.3-0.7-1.2"/>
		<path fill="#575B5A" d="M1311.1,833.6c-0.3-0.3-0.9-0.3-1.2,0c-0.3,0.3-0.3,0.9,0,1.2c0.1,0.1,0.2,0.2,0.3,0.2
			c0.5,0.3,1.2,0.2,1.6-0.3c0.3-0.5-0.1-1.3-0.7-1.2"/>
		<path fill="#575B5A" d="M1265.8,828.6"/>
		<path fill="#575B5A" d="M1204.6,832.2c-1.6-0.2-3.6-0.2-3.6,1.8c1-1,4,1,3.7-2"/>
		<path fill="#575B5A" d="M1184.4,838.3c2.8-11.7,0.5-0.6,0-0.1"/>
		<path fill="#575B5A" d="M1329.1,826c-0.3-0.3-0.9-0.3-1.2,0c-0.3,0.3-0.3,0.9,0,1.2c0.1,0.1,0.2,0.2,0.3,0.2
			c0.5,0.3,1.2,0.2,1.6-0.3c0.3-0.5-0.1-1.3-0.7-1.2"/>
		<path fill="#575B5A" d="M1341.4,829.3c-0.2-0.2-0.4-0.2-0.6,0c-0.2,0.1-0.2,0.4,0,0.6c0,0,0.1,0.1,0.2,0.1
			c0.3,0.1,0.6,0.1,0.8-0.1C1341.9,829.6,1341.7,829.2,1341.4,829.3"/>
		<path fill="#575B5A" d="M1325.6,835.2c-0.2-0.2-0.4-0.2-0.6,0c-0.2,0.1-0.2,0.4,0,0.6c0,0,0.1,0.1,0.2,0.1
			c0.3,0.1,0.6,0.1,0.8-0.1C1326.1,835.5,1325.9,835.1,1325.6,835.2"/>
		<path fill="#575B5A" d="M1324,829.7c-0.2-0.2-0.4-0.2-0.6,0c-0.2,0.1-0.2,0.4,0,0.6c0,0,0.1,0.1,0.2,0.1c0.3,0.1,0.6,0.1,0.8-0.1
			C1324.5,830,1324.3,829.6,1324,829.7"/>
		<path fill="#575B5A" d="M1333.6,829.9c-0.2-0.2-0.4-0.2-0.6,0c-0.2,0.1-0.2,0.4,0,0.6c0,0,0.1,0.1,0.2,0.1
			c0.3,0.1,0.6,0.1,0.8-0.1C1334.1,830.2,1333.9,829.8,1333.6,829.9"/>
		<path fill="#575B5A" d="M1336.6,824.7c-0.2-0.2-0.4-0.2-0.6,0c-0.2,0.1-0.2,0.4,0,0.6c0,0,0.1,0.1,0.2,0.1
			c0.3,0.1,0.6,0.1,0.8-0.1C1337.1,825,1336.8,824.6,1336.6,824.7"/>
		<path fill="#575B5A" d="M1319.7,834.3c-0.2-0.2-0.6-0.2-0.9,0c-0.2,0.2-0.2,0.6,0,0.9c0.1,0.1,0.1,0.1,0.2,0.2
			c0.4,0.2,0.9,0.1,1.2-0.2C1320.5,834.8,1320.2,834.2,1319.7,834.3"/>
		<path fill="#575B5A" d="M1299.3,850.6c-0.2-0.2-0.6-0.2-0.9,0c-0.2,0.2-0.2,0.6,0,0.9c0.1,0.1,0.1,0.1,0.2,0.2
			c0.4,0.2,0.9,0.1,1.2-0.2C1300,851,1299.7,850.4,1299.3,850.6"/>
		<path fill="#575B5A" d="M1287.6,851.9c-0.2-0.2-0.6-0.2-0.9,0c-0.2,0.2-0.2,0.6,0,0.9c0.1,0.1,0.1,0.1,0.2,0.2
			c0.4,0.2,0.9,0.1,1.2-0.2C1288.4,852.3,1288.1,851.7,1287.6,851.9"/>
		<path fill="#575B5A" d="M1285.5,866.7c-0.2-0.2-0.6-0.2-0.9,0c-0.2,0.2-0.2,0.6,0,0.9c0.1,0.1,0.1,0.1,0.2,0.2
			c0.4,0.2,0.9,0.1,1.2-0.2C1286.3,867.2,1286,866.6,1285.5,866.7"/>
		<path fill="#575B5A" d="M1216.8,858.7"/>
		<path fill="#575B5A" d="M1188.8,854"/>
		<path fill="#575B5A" d="M1188.4,858.9"/>
		<path fill="#575B5A" d="M1226.5,855.6"/>
		<path fill="#575B5A" d="M1241.7,859.2"/>
		<path fill="#575B5A" d="M1206.8,859.4c-1,0.4-2.1,0.4-3.1,0.4c0.2,3.1,3.1,2.1,4.1,2.1c3-1,0.9-2.1-1.1-2.7"/>
		<path fill="#525655" d="M1192.8,865.4c10.2-0.4,21.2-3.4,31.7-0.8c2.5,0.3,5.1,0.8,7.5,1.5c2.5,0.7,4.9,1.5,7.3,2.6
			c2.8,0.8,5.6,1.4,8.4,2c19.7,3.5,40.4,0.3,60.3-2.9c15.4-2.5,30.7-5,46.1-7.5c7.5-1.2,16.6-4.1,17.6-11.5c0.3-2.2-0.2-4.2-1.2-6.1
			c-0.2,0.5-0.4,1-0.7,1.5c-3,6.1-9.4,10-16,11.8c-6.6,1.8-13.5,2-20.3,2.7c-13.2,1.5-26.1,5.3-39.3,7.3
			c-15.7,2.4-31.7,2.2-47.3-0.5c-3.2-0.5-6.3-1.2-9.5-1.9c-2.6-0.7-5.2-1.3-7.9-1.7c-2.7-0.5-5.4-0.8-8.1-1c-2.4-0.9-5-1.3-7.7-1.4
			c-2.7-0.1-5.4,0.1-8.1,0.4c-11,1.2-22.1,3.8-28.8-5.5c1,3,2,5,4.4,7.5C1184,863.5,1187.7,865,1192.8,865.4z"/>
	</g>
	<path opacity="0.56" clip-path="url(#SVGID_2_)" fill="#065F65" d="M30.6,201.7c0-17.4,7.2-57.9-3-72.1
		c-22.3-30.9-16.5,27.9-12,45.1c-9.6,23.1,0.5,60.7,3,87c2.4,25.4,1.9,51.7,3.6,77.7C43.6,312.6,30.6,237.7,30.6,201.7z"/>
	<path opacity="0.56" clip-path="url(#SVGID_2_)" fill="#065F65" d="M1011.7,393.7c0-17.4,7.2-57.9-3-72.1
		c-22.3-30.9-16.5,27.9-12,45.1c-9.6,23.1,0.5,60.7,3,87c2.4,25.4,1.9,51.7,3.6,77.7C1024.7,504.6,1011.7,429.7,1011.7,393.7z"/>
	<path opacity="0.32" clip-path="url(#SVGID_2_)" fill="#00302C" d="M54.6,819.8c4-27.4,33.9,0.2,44.3,0.9
		c14,0.9,41.3-26.1,48.3,4.5c-17.5,13.2-50-4.9-57.1,24.1c-11-1.1-21.4-7.1-26.9-17c-12.1,1-25.3,4.2-38,2
		C26.5,816.1,40.2,827.9,54.6,819.8z"/>
	<g clip-path="url(#SVGID_2_)">
		<path fill="#FFFDFE" d="M116.8,310.5c0,4.9-1.4,8.9-1.4,8.9s-1.4-4-1.4-8.9c0-4.9,1.4-8.9,1.4-8.9S116.8,305.6,116.8,310.5z"/>
		<path fill="#FFFDFE" d="M106.5,310.5c0,0,4-1.4,8.9-1.4c4.9,0,8.9,1.4,8.9,1.4"/>
		<path fill="#FFFDFE" d="M124.3,310.5c0,0-4,1.4-8.9,1.4c-4.9,0-8.9-1.4-8.9-1.4"/>
	</g>
	<g clip-path="url(#SVGID_2_)">
		<path fill="#FFFDFE" d="M429.6,501c0,10.5-2.9,18.9-2.9,18.9s-2.9-8.5-2.9-18.9s2.9-18.9,2.9-18.9S429.6,490.6,429.6,501z"/>
		<path fill="#FFFDFE" d="M407.7,501c0,0,8.5-2.9,18.9-2.9c10.5,0,18.9,2.9,18.9,2.9"/>
		<path fill="#FFFDFE" d="M445.6,501c0,0-8.5,2.9-18.9,2.9c-10.5,0-18.9-2.9-18.9-2.9"/>
	</g>
	<g clip-path="url(#SVGID_2_)">
		<path fill="#FFFDFE" d="M83.7,720.1c0,7.4-2.1,13.4-2.1,13.4s-2.1-6-2.1-13.4s2.1-13.4,2.1-13.4S83.7,712.7,83.7,720.1z"/>
		<path fill="#FFFDFE" d="M68.3,720.1c0,0,6-2.1,13.4-2.1c7.4,0,13.4,2.1,13.4,2.1"/>
		<path fill="#FFFDFE" d="M95,720.1c0,0-6,2.1-13.4,2.1c-7.4,0-13.4-2.1-13.4-2.1"/>
	</g>
	<g clip-path="url(#SVGID_2_)">
		<path fill="#FFFDFE" d="M278,468c0,4.9-1.4,8.9-1.4,8.9s-1.4-4-1.4-8.9c0-4.9,1.4-8.9,1.4-8.9S278,463.1,278,468z"/>
		<path fill="#FFFDFE" d="M267.7,468c0,0,4-1.4,8.9-1.4c4.9,0,8.9,1.4,8.9,1.4"/>
		<path fill="#FFFDFE" d="M285.6,468c0,0-4,1.4-8.9,1.4c-4.9,0-8.9-1.4-8.9-1.4"/>
	</g>
	<g clip-path="url(#SVGID_2_)">
		<path fill="#FFFDFE" d="M1100.1,546c0,4.9-1.4,8.9-1.4,8.9s-1.4-4-1.4-8.9s1.4-8.9,1.4-8.9S1100.1,541.1,1100.1,546z"/>
		<path fill="#FFFDFE" d="M1089.8,546c0,0,4-1.4,8.9-1.4s8.9,1.4,8.9,1.4"/>
		<path fill="#FFFDFE" d="M1107.6,546c0,0-4,1.4-8.9,1.4s-8.9-1.4-8.9-1.4"/>
	</g>
	<g clip-path="url(#SVGID_2_)">
		<path fill="#FFFDFE" d="M1226.1,447c0,4.9-1.4,8.9-1.4,8.9s-1.4-4-1.4-8.9s1.4-8.9,1.4-8.9S1226.1,442.1,1226.1,447z"/>
		<path fill="#FFFDFE" d="M1215.8,447c0,0,4-1.4,8.9-1.4s8.9,1.4,8.9,1.4"/>
		<path fill="#FFFDFE" d="M1233.7,447c0,0-4,1.4-8.9,1.4s-8.9-1.4-8.9-1.4"/>
	</g>
	<g clip-path="url(#SVGID_2_)">
		<path fill="#FFFDFE" d="M1241.2,159.7c0,4.9-1.4,8.9-1.4,8.9s-1.4-4-1.4-8.9c0-4.9,1.4-8.9,1.4-8.9S1241.2,154.8,1241.2,159.7z"/>
		<path fill="#FFFDFE" d="M1230.9,159.7c0,0,4-1.4,8.9-1.4c4.9,0,8.9,1.4,8.9,1.4"/>
		<path fill="#FFFDFE" d="M1248.8,159.7c0,0-4,1.4-8.9,1.4c-4.9,0-8.9-1.4-8.9-1.4"/>
	</g>
	<g clip-path="url(#SVGID_2_)">
		<path fill="#FFFDFE" d="M1370.1,125.3c0,4.9-1.4,8.9-1.4,8.9s-1.4-4-1.4-8.9c0-4.9,1.4-8.9,1.4-8.9S1370.1,120.4,1370.1,125.3z"/>
		<path fill="#FFFDFE" d="M1359.9,125.3c0,0,4-1.4,8.9-1.4s8.9,1.4,8.9,1.4"/>
		<path fill="#FFFDFE" d="M1377.7,125.3c0,0-4,1.4-8.9,1.4s-8.9-1.4-8.9-1.4"/>
	</g>
	<g clip-path="url(#SVGID_2_)">
		<path fill="#FFFDFE" d="M908.1,278.3c0,4.9-1.4,8.9-1.4,8.9s-1.4-4-1.4-8.9c0-4.9,1.4-8.9,1.4-8.9S908.1,273.4,908.1,278.3z"/>
		<path fill="#FFFDFE" d="M897.8,278.3c0,0,4-1.4,8.9-1.4s8.9,1.4,8.9,1.4"/>
		<path fill="#FFFDFE" d="M915.6,278.3c0,0-4,1.4-8.9,1.4s-8.9-1.4-8.9-1.4"/>
	</g>
	<g clip-path="url(#SVGID_2_)">
		<path fill="#FFFDFE" d="M296,96.8c0,4.9-1.4,8.9-1.4,8.9s-1.4-4-1.4-8.9c0-4.9,1.4-8.9,1.4-8.9S296,91.9,296,96.8z"/>
		<path fill="#FFFDFE" d="M285.8,96.8c0,0,4-1.4,8.9-1.4c4.9,0,8.9,1.4,8.9,1.4"/>
		<path fill="#FFFDFE" d="M303.6,96.8c0,0-4,1.4-8.9,1.4c-4.9,0-8.9-1.4-8.9-1.4"/>
	</g>
	<g clip-path="url(#SVGID_2_)">
		<path fill="#FFFDFE" d="M47.1,51.7c0,4.9-1.4,8.9-1.4,8.9s-1.4-4-1.4-8.9c0-4.9,1.4-8.9,1.4-8.9S47.1,46.8,47.1,51.7z"/>
		<path fill="#FFFDFE" d="M36.8,51.7c0,0,4-1.4,8.9-1.4s8.9,1.4,8.9,1.4"/>
		<path fill="#FFFDFE" d="M54.6,51.7c0,0-4,1.4-8.9,1.4s-8.9-1.4-8.9-1.4"/>
	</g>
	<g clip-path="url(#SVGID_2_)">
		<path fill="#FFFDFE" d="M236.1,267.7c0,4.9-1.4,8.9-1.4,8.9s-1.4-4-1.4-8.9c0-4.9,1.4-8.9,1.4-8.9S236.1,262.8,236.1,267.7z"/>
		<path fill="#FFFDFE" d="M225.8,267.7c0,0,4-1.4,8.9-1.4c4.9,0,8.9,1.4,8.9,1.4"/>
		<path fill="#FFFDFE" d="M243.7,267.7c0,0-4,1.4-8.9,1.4c-4.9,0-8.9-1.4-8.9-1.4"/>
	</g>
	<g clip-path="url(#SVGID_2_)">
		<path fill="#FFFDFE" d="M506.1,8.9c0,4.9-1.4,8.9-1.4,8.9s-1.4-4-1.4-8.9s1.4-8.9,1.4-8.9S506.1,4,506.1,8.9z"/>
		<path fill="#FFFDFE" d="M495.9,8.9c0,0,4-1.4,8.9-1.4c4.9,0,8.9,1.4,8.9,1.4"/>
		<path fill="#FFFDFE" d="M513.7,8.9c0,0-4,1.4-8.9,1.4c-4.9,0-8.9-1.4-8.9-1.4"/>
	</g>
	<g clip-path="url(#SVGID_2_)">
		<path fill="#FFFDFE" d="M722.2,117.7c0,4.9-1.4,8.9-1.4,8.9s-1.4-4-1.4-8.9c0-4.9,1.4-8.9,1.4-8.9S722.2,112.8,722.2,117.7z"/>
		<path fill="#FFFDFE" d="M711.9,117.7c0,0,4-1.4,8.9-1.4c4.9,0,8.9,1.4,8.9,1.4"/>
		<path fill="#FFFDFE" d="M729.7,117.7c0,0-4,1.4-8.9,1.4c-4.9,0-8.9-1.4-8.9-1.4"/>
	</g>
	<g clip-path="url(#SVGID_2_)">
		<path fill="#FFFDFE" d="M32,578.4c0,4.9-1.4,8.9-1.4,8.9s-1.4-4-1.4-8.9c0-4.9,1.4-8.9,1.4-8.9S32,573.4,32,578.4z"/>
		<path fill="#FFFDFE" d="M21.7,578.4c0,0,4-1.4,8.9-1.4c4.9,0,8.9,1.4,8.9,1.4"/>
		<path fill="#FFFDFE" d="M39.5,578.4c0,0-4,1.4-8.9,1.4c-4.9,0-8.9-1.4-8.9-1.4"/>
	</g>
	<g clip-path="url(#SVGID_2_)">
		<path fill="#FFFDFE" d="M911.2,702.7c0,4.9-1.4,8.9-1.4,8.9s-1.4-4-1.4-8.9s1.4-8.9,1.4-8.9S911.2,697.8,911.2,702.7z"/>
		<path fill="#FFFDFE" d="M900.9,702.7c0,0,4-1.4,8.9-1.4c4.9,0,8.9,1.4,8.9,1.4"/>
		<path fill="#FFFDFE" d="M918.7,702.7c0,0-4,1.4-8.9,1.4c-4.9,0-8.9-1.4-8.9-1.4"/>
	</g>
	<g clip-path="url(#SVGID_2_)">
		<path fill="#FFFDFE" d="M1340.1,533.4c0,4.9-1.4,8.9-1.4,8.9s-1.4-4-1.4-8.9c0-4.9,1.4-8.9,1.4-8.9S1340.1,528.4,1340.1,533.4z"/>
		<path fill="#FFFDFE" d="M1329.9,533.4c0,0,4-1.4,8.9-1.4c4.9,0,8.9,1.4,8.9,1.4"/>
		<path fill="#FFFDFE" d="M1347.7,533.4c0,0-4,1.4-8.9,1.4c-4.9,0-8.9-1.4-8.9-1.4"/>
	</g>
	<g clip-path="url(#SVGID_2_)">
		<path fill="#FFFDFE" d="M1061.1,17.3c0,4.9-1.4,8.9-1.4,8.9s-1.4-4-1.4-8.9c0-4.9,1.4-8.9,1.4-8.9S1061.1,12.4,1061.1,17.3z"/>
		<path fill="#FFFDFE" d="M1050.8,17.3c0,0,4-1.4,8.9-1.4s8.9,1.4,8.9,1.4"/>
		<path fill="#FFFDFE" d="M1068.6,17.3c0,0-4,1.4-8.9,1.4s-8.9-1.4-8.9-1.4"/>
	</g>
	<g clip-path="url(#SVGID_2_)">
		<path fill="#FFFDFE" d="M728.1,392.3c0,4.9-1.4,8.9-1.4,8.9s-1.4-4-1.4-8.9c0-4.9,1.4-8.9,1.4-8.9S728.1,387.4,728.1,392.3z"/>
		<path fill="#FFFDFE" d="M717.8,392.3c0,0,4-1.4,8.9-1.4c4.9,0,8.9,1.4,8.9,1.4"/>
		<path fill="#FFFDFE" d="M735.6,392.3c0,0-4,1.4-8.9,1.4c-4.9,0-8.9-1.4-8.9-1.4"/>
	</g>
	<g clip-path="url(#SVGID_2_)">
		<path fill="#FFFDFE" d="M325.8,735.7c0,3.7-1,6.7-1,6.7s-1-3-1-6.7c0-3.7,1-6.7,1-6.7S325.8,732.1,325.8,735.7z"/>
		<path fill="#FFFDFE" d="M318.1,735.7c0,0,3-1,6.7-1c3.7,0,6.7,1,6.7,1"/>
		<path fill="#FFFDFE" d="M331.4,735.7c0,0-3,1-6.7,1c-3.7,0-6.7-1-6.7-1"/>
	</g>
	<g clip-path="url(#SVGID_2_)">
		<path fill="#FFFDFE" d="M973.7,459.7c0,3.1-0.9,5.6-0.9,5.6s-0.9-2.5-0.9-5.6c0-3.1,0.9-5.6,0.9-5.6S973.7,456.6,973.7,459.7z"/>
		<path fill="#FFFDFE" d="M967.3,459.7c0,0,2.5-0.9,5.6-0.9c3.1,0,5.6,0.9,5.6,0.9"/>
		<path fill="#FFFDFE" d="M978.4,459.7c0,0-2.5,0.9-5.6,0.9c-3.1,0-5.6-0.9-5.6-0.9"/>
	</g>
	<g clip-path="url(#SVGID_2_)">
		<path fill="#FFFDFE" d="M277.9,627.7c0,3.1-0.9,5.6-0.9,5.6s-0.9-2.5-0.9-5.6c0-3.1,0.9-5.6,0.9-5.6S277.9,624.7,277.9,627.7z"/>
		<path fill="#FFFDFE" d="M271.5,627.7c0,0,2.5-0.9,5.6-0.9c3.1,0,5.6,0.9,5.6,0.9"/>
		<path fill="#FFFDFE" d="M282.7,627.7c0,0-2.5,0.9-5.6,0.9c-3.1,0-5.6-0.9-5.6-0.9"/>
	</g>
	<g clip-path="url(#SVGID_2_)">
		<path fill="#FFFDFE" d="M605.1,129.6c0,4.9-1.4,8.9-1.4,8.9s-1.4-4-1.4-8.9c0-4.9,1.4-8.9,1.4-8.9S605.1,124.7,605.1,129.6z"/>
		<path fill="#FFFDFE" d="M594.8,129.6c0,0,4-1.4,8.9-1.4c4.9,0,8.9,1.4,8.9,1.4"/>
		<path fill="#FFFDFE" d="M612.6,129.6c0,0-4,1.4-8.9,1.4c-4.9,0-8.9-1.4-8.9-1.4"/>
	</g>
	<g clip-path="url(#SVGID_2_)">
		<path fill="#FFFDFE" d="M866.1,87c0,4.9-1.4,8.9-1.4,8.9s-1.4-4-1.4-8.9c0-4.9,1.4-8.9,1.4-8.9S866.1,82.1,866.1,87z"/>
		<path fill="#FFFDFE" d="M855.8,87c0,0,4-1.4,8.9-1.4c4.9,0,8.9,1.4,8.9,1.4"/>
		<path fill="#FFFDFE" d="M873.6,87c0,0-4,1.4-8.9,1.4c-4.9,0-8.9-1.4-8.9-1.4"/>
	</g>
	<path clip-path="url(#SVGID_2_)" fill="#04352C" d="M205.1,845c-17.2-8.8-42.7,16.7-51.2-7.2c0.3,3.8-0.3,7.6,0.2,11.4
		c-1.3-4.4-4.1-7.1-6-10.2c-0.3,1.5-0.1,2.9-0.6,4.3c-6.2-5-8.8-13.6-15.3-19.5c-0.9,9.2,2.1,16.7,1.4,25.6
		c-9.1-0.9-31.1,4.5-36.8,10.8c25.4,1.7,47.2-3.3,71.1,0.3c13.1,2,22,3,35.3-0.3c10.1-2.5,23.4-10.2,34.3-9.3
		C231.3,845.8,212.9,848.9,205.1,845z"/>
	<path clip-path="url(#SVGID_2_)" fill="#043D33" d="M1005.7,855.8c54,0,104.6-1.9,155.8-9.7c-11.5-8.1-29.1-5-44.3-5.8
		c-0.7-13.4-0.5-27.1-0.3-40.6c-3.7,10.8-4.3,22.5-3,34.2c-4.4-16.7-8-35.5-9.8-52.8c-4,12.4-2.2,32.2-5.2,47
		c-3.8-12.4-6.2-24.4-6.1-37.4c-1.8,12.7-3.3,25.1-6.8,37.2c-1.7-7.2-4.8-14.2-5.3-22.2c1.1,9.4,0,19.7-0.7,28.8
		c-0.5-3.2-2.7-11.8-3-17.5c-0.3,2-2.4,10.1-2.9,14.5c-8.5-9.7-11.8-25.9-14.6-39.3c0.2,8.2,0.2,33.2,0.2,47.6
		c-1.5-14.5-2.6-29.8-5.3-43.4c-1.5,19.1-0.9,38.9-0.5,58.2c-0.9-5.5-4.9-13.3-6.2-19c-1,6.1-4.7,16-5.3,19.9
		c-0.3-7.9-3.1-22.5-3.6-24.2c-1,2.6-2.3,5.7-3.2,8.3c-0.5-9.4-3.2-19.4-5.2-28c0.5,12.2-0.8,26-4.2,37.6
		C1019.7,850.9,1006.1,855.6,1005.7,855.8z"/>
	<path clip-path="url(#SVGID_2_)" fill="#03352B" d="M927.7,927.8c77.1,0,155-5.8,230.1-9c-25.5,0-55.5,6.7-79.7,2.6
		c-0.9-2.4-3.4-14.8-3.4-12c0,2.6-0.5,6,0,8.6c0.3-11.5,0.8-24.2-3.2-33.4c0.6,7.1,0,14.3,0.3,21.4c-2.4-9.3-4.7-18.6-6.2-28.2
		c1.1,9.6,0.2,21.9-2.1,29c-5.8-14.1-11.4-29-12.8-44.1c0,14.4-0.1,28.9,0.1,43.3c-3.4-12.2-7.1-24.8-9.1-37.5c0,11.5,0,23,0.2,34.5
		c-4.9-12.1-7.4-25.4-11.5-37.3c-1,12.8-0.7,37-0.7,44.7c0-11.9,0-23.9,0-35.8c0.4,10.7,0.1,21.6-0.7,32.1
		c-0.5-2.3-3.7-10.1-4.6-13.9c-1,6.8-3.5,12.9-4.3,19.8c-2.1-4.5-8.9-12.5-10.7-17.5c0.4,3.9-0.6,9.7-0.7,13.9
		c-1.1-2.6-1.9-7.2-3-10c-1.6,4.8-3.5,8.8-6.2,12.9c0.4-5.6-0.7-11.4-0.5-16.7c-1,2.8-5.8,9.6-7.5,13.7
		c-2.3-4.3-10.6-10.5-12.2-13.7c-0.8,4.8-2.8,9.1-3.5,13.9c-1.1-4.3-4.9-11.5-5.4-13.9c-0.4,8.2-3.1,15-4.4,22.9
		c-1.4-6.9-6.4-17.7-7.6-22.9c-0.4,6.7-2.3,14.1-3,20c0.1-7.3-2.4-18.3-3-23c-0.4,8.3-1.6,17.4-0.7,25.9c0-6.7-1.5-13.3-2.3-18.5
		c-0.3,8.1-1.1,16.3-0.7,24.5c-0.1-5.9-1.8-13.6-2.3-16.9c0.2,6.3-0.7,13.3-0.5,19.9c-0.7-3.3-2.8-6.8-3.8-10.2
		C940.3,921.4,930.7,924.8,927.7,927.8z"/>
	<path clip-path="url(#SVGID_2_)" fill="#01231F" d="M-5.5,964.8c55-1.1,109.9-2.1,164.9-3.2c1-8.3,2-16.6,2.9-24.9
		c0.1,8,0.2,16,0.3,24.1c3.2-8,6.3-16,9.5-24.1c1,9,1.9,18,2.9,27c2.7-11,5.5-21.9,8.2-32.9c1.6,8,3.3,15.9,4.9,23.9
		c-1.3-16.9-2.7-33.8-4-50.7c6.4,18,12.8,36.1,19.2,54.1c3.6-9.2,7.1-18.3,10.7-27.5c-0.8,8-1.6,16.1-2.5,24.1
		c5.7-6,11.5-12.1,17.2-18.1c0,6,0,12,0,18c12-12,24-24,36-36c-9,16-18,32-27,48c10-6,20-12,30-18c-4,4-8,8-12,12
		c10-4,19.9-8,29.9-12c-2,4-4,8-6,12c7-3,14.1-6,21.1-9c-3,3-6,6-9,9c29,0,58,0,87,0l41.1,2.9c9,4.1,19.5,4.8,29,2
		c-5.2-5.7-10.5-11.5-15.7-17.2c5.9,4.1,11.8,8.2,17.7,12.3c0.2-4,0.3-7.9,0.5-11.9c-0.9,4.5,2.4,9.4,6.9,10.3
		c4.5,0.9,9.4-2.5,10.2-7.1c-0.8,3.5,1.7,7.4,5.2,8.1c3.5,0.7,7.4-1.8,8-5.4c7.3,6.4,14.6,12.8,21.8,19.2c1.5-6.4,2.9-12.9,4.4-19.3
		c3,7,6,14,9,21c16,0,32,0,48,0l193.3-1.2c5.9,6.3,16.4,7.6,23.7,3c7.3-4.6,10.6-14.7,7.4-22.7c1.2,6.1,2.4,12.3,3.6,18.4
		c1.3-6.3,2.6-12.6,3.9-18.9c6.4,2,10.9,9.1,9.8,15.7c1.9-2.1,3.7-4.3,5.6-6.4c-1.8,6.3,0.1,13.5,4.8,18.1c4-14,7.9-27.9,11.9-41.9
		c3,10,6,20,9,30c6-9,12-18,18-27c-0.1,9-0.1,17.9-0.2,26.9c2.9-3.1,5.8-6.2,8.7-9.3c-0.5,3.9-1,7.8-1.4,11.7
		c4.3-10.9,8.7-21.7,13-32.6c-2,8-3.9,15.9-5.9,23.9c5.1-8.9,10.2-17.9,15.3-26.8c-3.8,10.1-7.7,20.2-11.5,30.3c9-9,18-18,27-27
		c-3,9-6,18-9,27c22.1,0,44.1,0,66.2,0c0.9-5.9,1.8-11.8,2.7-17.7c2.6,8.1,5.1,16.1,7.7,24.2c0.8-5.9,1.7-11.8,2.5-17.6
		c-2.3,2.9-0.3,8,3.4,8.6c3.7,0.5,7.1-3.8,5.7-7.3c1.2,3.2,2.4,6.3,3.6,9.5c-2.8-12.6-5.6-25.1-8.5-37.7c7,12.9,13.9,25.7,20.9,38.6
		c0.4-6.2,0.7-12.3,1.1-18.5c1,4,2.1,8,3.1,11.9c1.9-6,3.8-11.9,5.7-17.9c0,4,0,8,0,12c6-10,12-20,18-30c-4,10-8,20-12,30
		c7.9-3,15.8-6,23.7-9c-0.5,4.5,3.5,8.9,8,8.9c4.5,0,8.5-4.4,8-8.9c1.6,2.9,3.2,5.9,4.7,8.8c3.2-11,6.3-21.9,9.5-32.9
		c-0.9,13.1-1.9,26.1-2.8,39.2c5.2-0.9,10.5-1.8,15.7-2.7c0.9-7.1,1.7-14.3,2.6-21.4c0,6-0.1,12-0.1,18c1.8-5,3.6-9.9,5.4-14.9
		c0.9,7,1.9,14,2.8,20.9c2.2-4,4.4-8.1,6.6-12.1c0,5,0,10,0,15c10-2,20-4,30-6h57c0-6,0-12,0-18c0,6,0.1,12.1,0.1,18.1
		c2.6-2.9,5.3-5.8,7.9-8.8c3.2,4.9,6.5,9.8,9.7,14.8c-0.1-13-0.2-26-0.3-39c4.8,13.1,9.7,26.1,14.5,39.2c0.2-11.1,0.5-22.2,0.7-33.3
		c0.7,10.9,1.3,21.9,2,32.8c2.1-4.1,4.2-8.2,6.3-12.3c0.3,4.2,0.6,8.3,1,12.5c3-6,6-12,9-18c0,5,0,10,0,15c2-4,4-8,6-12
		c-0.1,2.8-0.2,5.7-0.3,8.5c2.4-1.7,4.8-3.3,7.2-5c-1.1,2.9-2.1,5.9-3.2,8.8c2.8-2.1,5.5-4.3,8.3-6.4c0.1,4.1,0.2,8.3,0.3,12.4
		c4.1-3.9,8.2-7.8,12.3-11.6c-0.2,2.8-0.4,5.6-0.6,8.4c3.9-9,7.7-18.1,11.6-27.1c-2.2,7.9-4.4,15.8-6.6,23.7
		c3.3-4.9,6.6-9.8,9.8-14.7c0.1,5,0.1,10.1,0.2,15.1c3-3,6-6,9-9c0,3.1,0,6.3,0,9.4c13,1.2,26,2.3,39,3.5l77.7,0.4
		c14.1,5.9,28.1,11.8,42.2,17.7c-52.8,21-109.4,30-165.7,37.9c-430.1,60-869.1,56.1-1298.1-11.4C-27.8,989.9-27.5,965.2-5.5,964.8z"
		/>
	<g clip-path="url(#SVGID_2_)">
		<path fill="#5F6362" d="M105.2,865.3c10.7,5.4,17.9,20.3,10.7,30.2c-5,6.6-14.3,5-21.5,7.1c-1.7,0.3-3.3,0.5-5,1.1
			c-2.5,0.6-5,1.1-7.5,1.6c-2.5,0.5-5,0.8-7.6,1c-1.7,0.1-3.4,0.1-5,0.1c-9.1-0.9-17.4-7-27-4.8c-1.4-0.2-2.5-0.8-3.3-1.6
			c-0.8-0.8-1.2-1.9-1.4-3.2c3.1-9.2,10.5-17.5,19.6-23.1c1.8-1.1,3.7-2.2,5.6-3.1c4-1.8,8.2-3.3,12.5-4.5c1.4-0.4,2.9-0.7,4.3-1
			c6.5-1.5,12.5-1.5,19.4-1.3C101.3,864.2,103.3,864.7,105.2,865.3z"/>
		<path fill="#5F6362" d="M52.7,884.5c-0.1-0.1-0.2-0.1-0.3-0.2C52.6,884.3,52.7,884.4,52.7,884.5z"/>
		<path fill="#5F6362" d="M55.1,885.7c-0.3-0.1-0.6-0.2-0.9-0.3C54.5,885.5,54.8,885.6,55.1,885.7z"/>
		<path fill="#5F6362" d="M53.6,885.1c-0.1-0.1-0.2-0.1-0.4-0.2C53.4,884.9,53.5,885,53.6,885.1z"/>
		<path fill="#5F6362" d="M50.7,880.5"/>
		<path fill="#707574" d="M50.8,880.3c-0.4,5.3,6.2,7,8.9,4.8c1.6-0.9,3.1-1.9,4.6-2.9c2.3-1.6,5-3.2,7.9-4.6
			c1.4-0.7,2.9-1.3,4.4-1.7c1.9-0.7,3-1.3,4.6-1.3c11.6,2.2,21.5-0.6,33.1-1.1c-6.6-10.5-20.4-11.6-31.2-9.8
			c-1.8,0.3-3.6,0.7-5.4,1.2c-5.3,1.5-10.3,3.7-14.3,6.1c-1.4,0.9-2.9,1.8-4.3,2.7c-2.8,1.9-5.5,3.8-8.1,5.5
			C50.9,879.6,50.8,879.9,50.8,880.3z"/>
		<path fill="#5F6362" d="M51.8,883.6c-0.2-0.3-0.5-0.6-0.6-0.9C51.4,882.9,51.6,883.3,51.8,883.6z"/>
		<path fill="#5F6362" d="M50.9,881.7"/>
		<path fill="#5F6362" d="M50.8,880.3c0-0.4,0.2-0.7,0.3-1.1C50.9,879.6,50.8,879.9,50.8,880.3z"/>
		<path fill="#5F6362" d="M51,882.3c0-0.1,0-0.1-0.1-0.2C51,882.1,51,882.2,51,882.3z"/>
		<path fill="#5F6362" d="M50.9,881.9"/>
		<path fill="#515655" d="M44.5,892.5c8,3.7,16.3,3.7,25.1,3.1c1.9,0,3.4,1,5,2c3.3,1.7,7,2.4,10.8,2.4c1.9,0,3.8-0.2,5.8-0.6
			c9.9-2.2,19.8-6.6,27-14.3c-6.6,7.7-17.6,8.8-26.7,11.9c-1.7,0.4-3.3,0.8-4.9,1c-4.8,0.7-9.4,0.3-14.1-2.5
			c-1.9-0.2-3.8-0.4-5.7-0.6c-9.3-1.1-17.8-2.6-27.4-4.9c-1.1-0.6,0,0.6,0.3,0.6C41,891.8,42.8,892.1,44.5,892.5z"/>
		<path fill="#515655" d="M53.6,889.2c3.3,0.3,6.6,0.4,9.8,0.4c1.6,0,3.2-0.1,4.8-0.2c1.5-0.3,3-0.6,4.5-0.9c1.5-0.3,3-0.5,4.5-0.7
			c13.3-2.1,29.3,1.2,39.2-10.4c-12.7,7.2-25.9,9.4-40,9c-1.5,0.4-3,0.8-4.5,1.1s-3,0.6-4.6,0.7c-1.6,0.1-3.2,0.1-4.8,0.1
			c-6.4-0.1-12.7-1.2-18.8-3.7c1.1,1.7,2.8,2.8,4.8,3.3C50.2,888.6,51.9,889,53.6,889.2z"/>
		<path fill="#5F6362" d="M55,883.5c0.9,0.5,2.5,1,2-0.6c0-0.6-1.1-1.1-2.3,0.1C54.7,883.2,54.8,883.4,55,883.5z"/>
		<path fill="#5F6362" d="M90.8,870.5c2.2,0.8,2.2-0.3,2.1-0.8c-1-0.4-2-0.8-2.5,0.6C90.5,870.3,90.6,870.4,90.8,870.5z"/>
		<path fill="#5F6362" d="M64,876.6c0.1-0.3,0.6,0.3,0.6,0.3c0-0.6,0-1.1,0-1.7c-0.6,0-0.6,0.6-0.8,1.1
			C63.9,876.4,64,876.5,64,876.6z"/>
		<path fill="#797C7C" d="M92,864c-1.5,0.1-3.7-0.4-4.2,1.8c8.3,0.6,15.4,8.8,23.7,4.4c-3.3-3.9-8.8-4.4-13.5-5.9
			C96.1,864.1,94.1,864,92,864z"/>
		<path fill="#797C7C" d="M79.6,867.5c-1.4-0.3-2.7-0.3-3.8,0c-5.7,1.2-8.3,8.2-10.6,13.2c2.5-2.8,5.6-4.4,9-5.6
			c1.1-0.4,2.3-0.8,3.4-1.1c2.4-0.4,5.2-0.9,7.4-2c0.6-0.6-1.1-1.7-1.1-2.6C82.6,868.4,81.2,867.5,79.6,867.5z"/>
		<path fill="#797C7C" d="M59.8,881.5c1,0.3,2.1,0.3,2.1-0.2c0-1.9,0.4-3.4,1-4.9c0.6-1.4,1.4-2.8,2.3-4.5c-1,0.6-2.3,1.1-3.7,1.6
			c-4.2,1.6-9.1,3.4-7.9,7C55.6,881.6,58.1,880.8,59.8,881.5z"/>
		<path fill="#5F6362" d="M58,878.3"/>
		<path fill="#5F6362" d="M73.9,868.3"/>
		<path fill="#5F6362" d="M71.6,873.9"/>
		<path fill="#5F6362" d="M64.8,881.3c0.4,0,1.5,0,1-1.1c-0.6,0.6-0.6,0.6-1.1,1C64.7,881.2,64.7,881.3,64.8,881.3z"/>
		<path fill="#5F6362" d="M98.4,866.9c0.8,0,1.4,0,1.3-0.5c-0.1-0.6-1.5-1.1-2.1-0.6c0,0,0.1,0.6,0.3,0.9
			C98.1,866.9,98.3,866.9,98.4,866.9z"/>
		<path fill="#5F6362" d="M105.2,873c3-0.6,2.4-3.3,1.3-3.9c-1.7-1.1-0.6,2.2-1.9,3.5C104.8,872.8,105,872.9,105.2,873z"/>
		<path fill="#6C706F" d="M83.4,870.7c1-0.2,1.9-0.4,2.8-0.6c0-0.5-0.1-1.1-0.1-1.6c-1.8-0.2-3.6-0.9-4.4,1.6
			C81.9,870.8,82.7,870.8,83.4,870.7z"/>
		<path fill="#6C706F" d="M75.5,874.3c0.7-0.2,1.8-0.2,2.4-0.2c0-1.1,0.6-2.8-1.1-3.3c-1.7-0.6-1.7,1.7-2.5,2.5
			C74.3,874.1,75,874.3,75.5,874.3z"/>
		<path fill="#6C706F" d="M58.7,882.1c0.4-0.3,2.6-0.3,2.1-2c-1.1,0.6-2.8-1.1-3.8,1.4C57.2,882.1,58,882.2,58.7,882.1z"/>
		<path fill="#6C706F" d="M105.8,868.9c0.8,0.2,2,0.2,2.6,0.2c-0.1-0.6-0.4-1.7-0.5-2.2c-1.3,2.2-3-5-4.3,0.8
			C104.1,868.6,105.1,868.8,105.8,868.9z"/>
		<path fill="#575B5A" d="M49.2,883.6c-0.5-0.1-2.2-1.2-1.6,0.4c0.6,0.6,1.7,0.6,2.1,0.4C49.8,884.1,49.5,883.8,49.2,883.6z"/>
		<path fill="#575B5A" d="M67.4,884.2c0.1,0.3-2.7,0.3-0.5,1.4c0,0,0.6-0.6,1.1-1.2C67.9,884.2,67.6,884.2,67.4,884.2z"/>
		<path fill="#575B5A" d="M71.2,878.5c0.3,0.3-2.1,1-0.3,1.5C71.5,880,71.5,878.8,71.2,878.5"/>
		<path fill="#575B5A" d="M74.7,884.7c-1,0.2-1,0.7-1.1,1.3C74.2,886,74.8,886,74.7,884.7"/>
		<path fill="#575B5A" d="M63.3,886"/>
		<path fill="#575B5A" d="M62,890.9C60.2,884.6,61.9,890.6,62,890.9"/>
		<path fill="#575B5A" d="M46.2,889.1"/>
		<path fill="#575B5A" d="M57.1,893"/>
		<path fill="#575B5A" d="M55.6,890.1"/>
		<path fill="#575B5A" d="M60.4,886.3"/>
		<path fill="#575B5A" d="M68.8,886.8"/>
		<path fill="#575B5A" d="M68.5,880.9"/>
		<path fill="#575B5A" d="M81.3,880.5"/>
		<path fill="#575B5A" d="M76,881.1"/>
		<path fill="#575B5A" d="M79.5,883.9"/>
		<path fill="#575B5A" d="M78.5,879.2"/>
		<path fill="#575B5A" d="M97.7,880"/>
		<path fill="#575B5A" d="M72.6,882.8"/>
		<path fill="#575B5A" d="M50.3,886.1"/>
		<path fill="#575B5A" d="M43.7,887.1C43.7,887.3,40.4,886.8,43.7,887.1"/>
		<path fill="#575B5A" d="M104.6,874.7"/>
		<path fill="#575B5A" d="M108.2,877.9"/>
		<path fill="#575B5A" d="M101.1,881.2"/>
		<path fill="#575B5A" d="M106.4,877.1C106.2,877.4,106.2,876.8,106.4,877.1"/>
		<path fill="#575B5A" d="M105.4,877.8"/>
		<path fill="#575B5A" d="M107.4,874.4"/>
		<path fill="#575B5A" d="M98.8,880.4"/>
		<path fill="#575B5A" d="M86,893.1"/>
		<path fill="#575B5A" d="M80.6,894.4"/>
		<path fill="#575B5A" d="M79.6,903.3c-0.1-0.1-0.3-0.1-0.4,0c-0.1,0.1-0.1,0.4,0,0.5c0,0,0.1,0.1,0.1,0.1c0.2,0.1,0.4,0.1,0.5-0.1
			C79.9,903.5,79.8,903.2,79.6,903.3"/>
		<path fill="#575B5A" d="M51.9,898.3"/>
		<path fill="#575B5A" d="M43.1,894.4"/>
		<path fill="#575B5A" d="M41.9,897.4"/>
		<path fill="#575B5A" d="M55.6,897C55.8,897.2,55.8,897.2,55.6,897"/>
		<path fill="#575B5A" d="M61.1,899"/>
		<path fill="#575B5A" d="M48.5,898.4c-1.5-0.6-0.9,1-0.9,1.6c0.6,0,1.7,0.6,1.7-1.1c0,0-0.6-0.6-0.7-0.6"/>
		<path fill="#525655" d="M42.3,901.7c9.7-2.2,17.9,3.8,27,4.8c1.7,0.1,3.3,0,5-0.1c2.5-0.2,5-0.5,7.6-1c2.5-0.5,5-1,7.5-1.6
			c1.7-0.5,3.3-0.8,5-1.1c8.8-2.7,24.2-1.1,24.2-13.8c-5,9.9-17.6,8.3-26.6,11.5c-1.4,0.4-2.9,0.8-4.3,1.1c-1.4,0.4-2.9,0.8-4.3,1.1
			c-1.4,0.3-2.7,0.5-4.1,0.7c-1.4,0.2-2.8,0.3-4.1,0.3c-9.5,0.2-17.7-4.2-26.6-4.8c-2.8-0.6-5,0.6-7.7,0.6c-2.8-0.6-2.2-3.3-3.3-5.4
			c-0.3,2-0.1,3.7,0.7,5C39.1,900.4,40.4,901.3,42.3,901.7z"/>
	</g>
</g>
</svg>
